M48
METRIC,LZ,000.000
;FILE_FORMAT=3:3
;TYPE=PLATED
;Layer: PTH_Through
;EasyEDA v6.5.23, 2023-09-08 23:17:12
;de93c458165947d6a0ce1764d10cece9,10
;Gerber Generator version 0.2
;Holesize 1 = 0.889 mm
T01C0.889
;Holesize 2 = 0.901 mm
T02C0.901
;Holesize 3 = 0.915 mm
T03C0.915
;Holesize 4 = 2.151 mm
T04C2.151
%
G05
G90
T01
X002540Y-003810
X002540Y-006350
X002540Y-008890
X002540Y-011430
X002540Y-013970
X002540Y-016510
X002540Y-019050
X002540Y-021590
X002540Y-024130
X002540Y-026670
X002540Y-029210
X002540Y-031750
X002540Y-034290
X002540Y-036830
X002540Y-039370
X017780Y-039370
X017780Y-036830
X017780Y-034290
X017780Y-031750
X017780Y-029210
X017780Y-026670
X017780Y-024130
X017780Y-021590
X017780Y-019050
X017780Y-016764
X017780Y-013970
X017780Y-011430
X017780Y-008890
X017780Y-006350
X017780Y-003810
T02
X030480Y-016510
X033020Y-016510
X030480Y-011430
X033020Y-011430
X030480Y-030480
X033020Y-030480
X030480Y-025400
X033020Y-025400
X021590Y-038100
X024130Y-038100
X027940Y-038100
X033020Y-038100
X038100Y-038100
T03
X021590Y-005080
X024130Y-005080
X026670Y-005080
X029210Y-005080
X031750Y-005080
X034290Y-005080
X025400Y-011430
X022860Y-016510
X025400Y-016510
X022860Y-011430
X022860Y-025400
X025400Y-030480
X022860Y-030480
X025400Y-025400
T04
X001270Y-041910
X001270Y-001270
M30
