G04 Layer: TopSilkscreenLayer*
G04 EasyEDA v6.5.23, 2023-09-08 23:17:12*
G04 de93c458165947d6a0ce1764d10cece9,10*
G04 Gerber Generator version 0.2*
G04 Scale: 100 percent, Rotated: No, Reflected: No *
G04 Dimensions in millimeters *
G04 leading zeros omitted , absolute positions ,4 integer and 5 decimal *
%FSLAX45Y45*%
%MOMM*%

%ADD10C,0.1270*%
%ADD11C,0.2540*%
%ADD12C,0.2000*%

%LPD*%
G36*
X3795217Y-1705000D02*
G01*
X3787444Y-1718716D01*
X3781450Y-1730654D01*
X3775405Y-1743913D01*
X3769868Y-1757222D01*
X3765346Y-1769414D01*
X3762197Y-1779371D01*
X3760368Y-1788566D01*
X3774287Y-1788718D01*
X3766108Y-1792528D01*
X3760876Y-1795424D01*
X3757625Y-1798777D01*
X3755644Y-1803857D01*
X3754471Y-1810207D01*
X3772458Y-1810207D01*
X3773017Y-1807311D01*
X3774236Y-1806092D01*
X3777691Y-1805381D01*
X3784549Y-1805025D01*
X3818077Y-1804974D01*
X3817620Y-1808327D01*
X3816908Y-1810257D01*
X3814216Y-1811274D01*
X3807510Y-1811782D01*
X3781551Y-1812188D01*
X3774744Y-1811731D01*
X3772458Y-1810207D01*
X3754471Y-1810207D01*
X3753764Y-1815439D01*
X3754272Y-1817827D01*
X3756202Y-1820062D01*
X3766769Y-1828088D01*
X3753612Y-1829003D01*
X3750818Y-1831289D01*
X3749243Y-1837994D01*
X3746601Y-1860702D01*
X3745687Y-1865477D01*
X3744366Y-1867306D01*
X3740353Y-1868017D01*
X3738016Y-1869236D01*
X3735425Y-1871218D01*
X3732529Y-1873910D01*
X3726434Y-1880158D01*
X3726434Y-1915363D01*
X3737864Y-1927301D01*
X3810101Y-1927301D01*
X3820668Y-1915922D01*
X3822649Y-1912721D01*
X3823462Y-1909165D01*
X3823563Y-1894484D01*
X3871417Y-1894484D01*
X3871417Y-1902358D01*
X3843528Y-1901037D01*
X3838092Y-1902409D01*
X3836466Y-1907133D01*
X3837127Y-1926539D01*
X3885539Y-1927352D01*
X3897833Y-1914753D01*
X3897833Y-1880412D01*
X3885844Y-1867611D01*
X3811320Y-1867611D01*
X3800703Y-1879041D01*
X3798722Y-1882292D01*
X3797960Y-1886102D01*
X3797858Y-1902206D01*
X3761892Y-1901342D01*
X3755085Y-1900834D01*
X3752545Y-1899767D01*
X3752138Y-1897837D01*
X3752443Y-1895906D01*
X3754221Y-1894941D01*
X3758946Y-1894535D01*
X3783584Y-1894484D01*
X3783584Y-1867611D01*
X3764127Y-1867611D01*
X3765296Y-1857197D01*
X3857345Y-1857197D01*
X3860596Y-1841804D01*
X3860698Y-1840636D01*
X3857294Y-1840077D01*
X3833114Y-1839366D01*
X3786124Y-1839214D01*
X3777742Y-1838960D01*
X3772306Y-1838502D01*
X3769309Y-1837689D01*
X3768140Y-1836420D01*
X3768140Y-1834591D01*
X3769614Y-1828850D01*
X3863441Y-1828850D01*
X3867861Y-1812137D01*
X3866540Y-1811680D01*
X3863035Y-1811274D01*
X3843121Y-1810816D01*
X3838092Y-1810512D01*
X3835654Y-1809800D01*
X3834993Y-1808683D01*
X3835704Y-1807565D01*
X3838295Y-1806854D01*
X3843680Y-1806549D01*
X3870350Y-1806448D01*
X3874566Y-1795729D01*
X3876446Y-1789836D01*
X3872585Y-1789328D01*
X3862171Y-1788922D01*
X3793540Y-1788414D01*
X3779265Y-1788007D01*
X3782415Y-1778101D01*
X3882999Y-1778101D01*
X3890721Y-1760931D01*
X3886708Y-1760626D01*
X3859733Y-1760270D01*
X3789426Y-1760220D01*
X3792423Y-1751228D01*
X3925011Y-1751228D01*
X3950208Y-1719529D01*
X3960723Y-1705711D01*
X3959402Y-1705406D01*
X3950614Y-1705051D01*
X3936034Y-1705102D01*
X3930853Y-1705457D01*
X3928059Y-1706118D01*
X3926941Y-1707235D01*
X3926535Y-1708048D01*
X3925976Y-1708556D01*
X3925366Y-1708759D01*
X3923995Y-1708404D01*
X3923639Y-1710131D01*
X3921201Y-1714550D01*
X3914292Y-1724304D01*
X3874922Y-1724406D01*
X3878072Y-1718360D01*
X3883202Y-1709877D01*
X3884777Y-1706880D01*
X3884980Y-1706118D01*
X3883914Y-1705660D01*
X3881069Y-1705305D01*
X3871569Y-1705000D01*
X3858107Y-1705000D01*
X3847236Y-1724406D01*
X3819804Y-1724304D01*
X3815130Y-1723237D01*
X3815283Y-1719986D01*
X3820109Y-1710791D01*
X3822141Y-1706118D01*
X3821074Y-1705660D01*
X3818178Y-1705305D01*
X3808679Y-1705000D01*
G37*
G36*
X3781298Y-1705152D02*
G01*
X3772915Y-1705762D01*
X3763924Y-1724812D01*
X3758742Y-1736902D01*
X3753459Y-1750009D01*
X3747363Y-1766519D01*
X3746195Y-1767941D01*
X3742842Y-1768703D01*
X3735730Y-1769059D01*
X3699967Y-1769160D01*
X3634994Y-1837080D01*
X3634994Y-1957984D01*
X3699103Y-2024278D01*
X3735527Y-2024329D01*
X3742791Y-2024684D01*
X3746195Y-2025497D01*
X3747363Y-2026869D01*
X3751681Y-2038908D01*
X3757523Y-2053386D01*
X3764127Y-2068677D01*
X3770629Y-2082952D01*
X3778656Y-2098700D01*
X3780485Y-2101596D01*
X3782009Y-2103272D01*
X3783685Y-2104288D01*
X3785920Y-2104644D01*
X3795014Y-2104085D01*
X3785311Y-2087321D01*
X3780282Y-2077618D01*
X3775049Y-2066645D01*
X3769868Y-2054961D01*
X3765042Y-2043379D01*
X3760927Y-2032558D01*
X3754628Y-2013813D01*
X3704234Y-2013813D01*
X3643579Y-1950415D01*
X3643579Y-1844446D01*
X3704234Y-1781098D01*
X3754678Y-1781098D01*
X3756863Y-1772666D01*
X3760876Y-1760982D01*
X3766413Y-1746859D01*
X3772712Y-1732280D01*
X3785006Y-1705508D01*
X3783228Y-1705152D01*
G37*
G36*
X3910126Y-1755749D02*
G01*
X3906367Y-1755902D01*
X3903776Y-1757070D01*
X3901135Y-1760118D01*
X3897274Y-1765909D01*
X3891584Y-1775104D01*
X3890314Y-1779574D01*
X3894328Y-1780997D01*
X3919880Y-1781098D01*
X3979265Y-1842922D01*
X3979265Y-1950466D01*
X3918559Y-2013813D01*
X3898239Y-2013915D01*
X3890467Y-2014524D01*
X3889298Y-2014931D01*
X3891686Y-2019350D01*
X3897274Y-2028393D01*
X3901033Y-2033930D01*
X3904081Y-2037842D01*
X3906469Y-2040128D01*
X3908298Y-2040940D01*
X3914292Y-2041448D01*
X3917137Y-2041347D01*
X3918102Y-2040331D01*
X3917137Y-2037892D01*
X3912362Y-2030933D01*
X3909669Y-2026564D01*
X3909263Y-2025548D01*
X3909872Y-2025040D01*
X3911498Y-2024634D01*
X3916781Y-2024278D01*
X3924300Y-2024278D01*
X3985006Y-1960829D01*
X3985006Y-1832813D01*
X3922877Y-1769262D01*
X3913428Y-1769110D01*
X3909822Y-1768551D01*
X3909263Y-1768195D01*
X3910329Y-1766062D01*
X3915359Y-1758594D01*
X3916426Y-1756562D01*
X3915918Y-1756257D01*
X3912565Y-1755800D01*
G37*
G36*
X3707129Y-1788566D02*
G01*
X3650691Y-1847494D01*
X3650691Y-1947468D01*
X3707180Y-2006346D01*
X3738118Y-2006295D01*
X3750360Y-2005888D01*
X3752392Y-2005584D01*
X3752392Y-2003907D01*
X3750614Y-1994204D01*
X3747515Y-1979930D01*
X3744874Y-1966417D01*
X3743248Y-1954174D01*
X3736035Y-1954174D01*
X3731717Y-1953920D01*
X3728008Y-1952345D01*
X3723030Y-1948027D01*
X3700729Y-1925269D01*
X3700729Y-1868881D01*
X3722217Y-1846732D01*
X3727043Y-1842516D01*
X3730701Y-1840992D01*
X3738118Y-1840636D01*
X3740454Y-1840280D01*
X3742029Y-1839671D01*
X3742740Y-1838909D01*
X3752443Y-1788566D01*
G37*
G36*
X3883863Y-1788566D02*
G01*
X3877259Y-1805127D01*
X3874515Y-1812543D01*
X3871874Y-1820824D01*
X3866946Y-1838147D01*
X3866997Y-1839569D01*
X3868724Y-1840331D01*
X3873042Y-1840687D01*
X3895750Y-1840788D01*
X3922115Y-1868424D01*
X3922115Y-1925828D01*
X3895140Y-1954225D01*
X3876040Y-1953971D01*
X3868521Y-1954174D01*
X3867302Y-1954377D01*
X3867353Y-1956054D01*
X3867962Y-1959356D01*
X3871620Y-1972462D01*
X3876141Y-1986178D01*
X3880561Y-1997760D01*
X3882440Y-2001926D01*
X3883964Y-2004517D01*
X3885488Y-2005330D01*
X3888689Y-2005939D01*
X3893667Y-2006244D01*
X3915714Y-2006346D01*
X3972153Y-1947418D01*
X3972102Y-1845970D01*
X3916883Y-1788566D01*
G37*
G36*
X3735324Y-1848205D02*
G01*
X3732123Y-1848561D01*
X3729024Y-1850136D01*
X3724960Y-1853641D01*
X3707841Y-1871421D01*
X3707942Y-1923592D01*
X3726027Y-1940814D01*
X3730345Y-1944370D01*
X3733596Y-1946198D01*
X3736289Y-1946706D01*
X3738778Y-1946554D01*
X3740099Y-1945843D01*
X3740607Y-1944065D01*
X3740607Y-1937664D01*
X3740150Y-1935835D01*
X3739235Y-1934972D01*
X3737660Y-1934768D01*
X3735882Y-1934159D01*
X3733292Y-1932533D01*
X3730244Y-1930044D01*
X3726942Y-1926996D01*
X3719271Y-1919173D01*
X3719271Y-1875891D01*
X3730802Y-1863953D01*
X3733952Y-1861210D01*
X3736543Y-1859330D01*
X3738168Y-1858670D01*
X3739387Y-1858416D01*
X3740150Y-1857552D01*
X3740607Y-1855978D01*
X3740607Y-1850491D01*
X3739946Y-1848967D01*
X3738372Y-1848307D01*
G37*
G36*
X3879189Y-1848205D02*
G01*
X3871468Y-1848307D01*
X3867200Y-1848662D01*
X3865372Y-1849526D01*
X3864152Y-1856333D01*
X3864101Y-1857552D01*
X3865626Y-1858264D01*
X3869385Y-1858568D01*
X3888689Y-1858670D01*
X3904996Y-1876450D01*
X3904996Y-1917496D01*
X3888638Y-1934768D01*
X3872331Y-1934870D01*
X3865778Y-1935429D01*
X3864610Y-1935886D01*
X3864457Y-1937969D01*
X3865727Y-1945944D01*
X3892854Y-1946757D01*
X3915156Y-1923338D01*
X3915156Y-1871878D01*
X3900576Y-1855114D01*
X3897477Y-1852168D01*
X3894683Y-1850186D01*
X3891838Y-1849018D01*
X3888536Y-1848459D01*
G37*
G36*
X3758437Y-1931771D02*
G01*
X3753154Y-1937410D01*
X3749954Y-1941372D01*
X3748328Y-1945233D01*
X3748074Y-1950313D01*
X3748325Y-1952650D01*
X3767836Y-1952650D01*
X3767988Y-1951685D01*
X3768547Y-1950974D01*
X3770020Y-1950415D01*
X3772763Y-1950059D01*
X3783533Y-1949754D01*
X3824579Y-1949754D01*
X3835501Y-1950110D01*
X3838346Y-1950466D01*
X3839972Y-1950974D01*
X3840784Y-1951685D01*
X3841242Y-1953615D01*
X3840886Y-1954377D01*
X3839565Y-1954885D01*
X3832504Y-1955495D01*
X3783888Y-1955596D01*
X3772814Y-1955241D01*
X3770071Y-1954885D01*
X3768547Y-1954377D01*
X3767988Y-1953615D01*
X3767836Y-1952650D01*
X3748325Y-1952650D01*
X3748887Y-1957882D01*
X3749548Y-1960067D01*
X3750818Y-1962657D01*
X3752596Y-1965401D01*
X3754678Y-1967941D01*
X3759860Y-1973529D01*
X3854450Y-1973529D01*
X3863289Y-1963826D01*
X3858615Y-1941220D01*
X3857955Y-1939696D01*
X3856685Y-1938020D01*
X3854958Y-1936343D01*
X3853027Y-1934870D01*
X3851351Y-1933905D01*
X3849370Y-1933143D01*
X3846626Y-1932584D01*
X3836720Y-1931974D01*
X3817620Y-1931771D01*
G37*
G36*
X3810660Y-1976526D02*
G01*
X3770274Y-1976882D01*
X3757879Y-1977237D01*
X3753154Y-1977643D01*
X3753104Y-1980184D01*
X3753764Y-1984756D01*
X3756456Y-1997405D01*
X3837736Y-1997303D01*
X3868928Y-1996693D01*
X3873550Y-1996236D01*
X3872687Y-1992630D01*
X3867607Y-1976526D01*
G37*
G36*
X3805224Y-2000402D02*
G01*
X3768090Y-2000910D01*
X3759149Y-2001316D01*
X3757980Y-2001520D01*
X3760266Y-2010460D01*
X3762501Y-2018233D01*
X3805631Y-2018944D01*
X3814114Y-2019401D01*
X3817924Y-2020265D01*
X3818991Y-2021636D01*
X3818534Y-2023110D01*
X3815232Y-2023872D01*
X3807104Y-2024227D01*
X3781653Y-2024329D01*
X3767124Y-2024684D01*
X3764991Y-2024938D01*
X3767937Y-2033930D01*
X3770934Y-2042160D01*
X3873093Y-2042007D01*
X3892854Y-2041702D01*
X3897833Y-2041398D01*
X3896309Y-2038451D01*
X3887470Y-2024329D01*
X3849928Y-2023618D01*
X3842512Y-2023160D01*
X3839108Y-2022348D01*
X3838143Y-2020925D01*
X3838498Y-2019503D01*
X3841292Y-2018690D01*
X3848150Y-2018385D01*
X3869537Y-2018233D01*
X3881729Y-2017572D01*
X3883558Y-2017115D01*
X3882542Y-2013966D01*
X3876395Y-2000402D01*
G37*
G36*
X3797046Y-2045157D02*
G01*
X3785717Y-2057196D01*
X3780688Y-2063089D01*
X3785023Y-2071624D01*
X3813657Y-2071624D01*
X3818026Y-2071217D01*
X3847541Y-2070607D01*
X3924554Y-2070506D01*
X3927856Y-2078786D01*
X3911498Y-2079294D01*
X3816350Y-2079498D01*
X3814521Y-2074722D01*
X3813657Y-2071624D01*
X3785023Y-2071624D01*
X3793693Y-2087524D01*
X3797249Y-2092655D01*
X3801211Y-2096007D01*
X3807053Y-2099462D01*
X3817112Y-2104999D01*
X3942740Y-2104085D01*
X3959606Y-2078278D01*
X3943096Y-2055520D01*
X3941013Y-2053183D01*
X3938778Y-2051253D01*
X3936288Y-2049627D01*
X3933342Y-2048357D01*
X3929786Y-2047392D01*
X3925519Y-2046630D01*
X3914140Y-2045665D01*
X3897985Y-2045309D01*
G37*
G36*
X1216406Y-1869186D02*
G01*
X1216406Y-1918970D01*
X1355344Y-2057907D01*
X1355344Y-2008124D01*
G37*
G36*
X640842Y-1873250D02*
G01*
X616204Y-1898142D01*
X670814Y-1952498D01*
X670814Y-1972564D01*
X622046Y-1972564D01*
X622046Y-2012188D01*
X670814Y-2012188D01*
X670814Y-2032000D01*
X710438Y-2032000D01*
X710438Y-1942592D01*
G37*
G36*
X720344Y-1893062D02*
G01*
X720344Y-2032000D01*
X759968Y-2032000D01*
X759968Y-1932686D01*
X779780Y-1932686D01*
X779780Y-1893062D01*
G37*
G36*
X789686Y-1893062D02*
G01*
X789686Y-1932686D01*
X795680Y-1933244D01*
X801166Y-1934921D01*
X806196Y-1937664D01*
X810768Y-1941575D01*
X814679Y-1946148D01*
X817422Y-1951177D01*
X819099Y-1956663D01*
X819658Y-1962657D01*
X819099Y-1968550D01*
X817422Y-1973935D01*
X814679Y-1978964D01*
X810768Y-1983486D01*
X806196Y-1987397D01*
X801166Y-1990140D01*
X795680Y-1991817D01*
X789686Y-1992375D01*
X769874Y-1992375D01*
X769874Y-2032000D01*
X809752Y-2071624D01*
X865886Y-2071624D01*
X819658Y-2025650D01*
X824788Y-2022856D01*
X829716Y-2019604D01*
X834440Y-2015896D01*
X838962Y-2011680D01*
X847852Y-2001012D01*
X854202Y-1989277D01*
X858012Y-1976475D01*
X859282Y-1962657D01*
X858012Y-1948738D01*
X854202Y-1935835D01*
X847852Y-1924100D01*
X838962Y-1913382D01*
X828243Y-1904492D01*
X816508Y-1898142D01*
X803605Y-1894332D01*
G37*
G36*
X869187Y-1893062D02*
G01*
X869187Y-2032000D01*
X908812Y-2032000D01*
X908812Y-1932686D01*
X928624Y-1932686D01*
X928624Y-1893062D01*
G37*
G36*
X938530Y-1893062D02*
G01*
X938530Y-1932686D01*
X944524Y-1933244D01*
X950010Y-1934921D01*
X955040Y-1937664D01*
X959612Y-1941575D01*
X963523Y-1946148D01*
X966266Y-1951177D01*
X967943Y-1956663D01*
X968502Y-1962657D01*
X967943Y-1968550D01*
X966266Y-1973935D01*
X963523Y-1978964D01*
X959612Y-1983486D01*
X955040Y-1987397D01*
X950010Y-1990140D01*
X944524Y-1991817D01*
X938530Y-1992375D01*
X918718Y-1992375D01*
X918718Y-2032000D01*
X938530Y-2032000D01*
X952449Y-2030730D01*
X965352Y-2026920D01*
X977087Y-2020570D01*
X987806Y-2011680D01*
X996696Y-2001012D01*
X1003046Y-1989277D01*
X1006856Y-1976475D01*
X1008126Y-1962657D01*
X1006856Y-1948738D01*
X1003046Y-1935835D01*
X996696Y-1924100D01*
X987806Y-1913382D01*
X977087Y-1904492D01*
X965352Y-1898142D01*
X952449Y-1894332D01*
G37*
G36*
X1018032Y-1893062D02*
G01*
X1018032Y-1952498D01*
X1057656Y-1952498D01*
X1057656Y-1893062D01*
G37*
G36*
X1117092Y-1893062D02*
G01*
X1117092Y-1952498D01*
X1156970Y-1952498D01*
X1156970Y-1893062D01*
G37*
G36*
X1166876Y-1893062D02*
G01*
X1166876Y-2032000D01*
X1206500Y-2032000D01*
X1206500Y-1893062D01*
G37*
G36*
X1315720Y-1893062D02*
G01*
X1315720Y-1951736D01*
X1355344Y-1991360D01*
X1355344Y-1893062D01*
G37*
G36*
X1434592Y-1893062D02*
G01*
X1420774Y-1894332D01*
X1407972Y-1898142D01*
X1396238Y-1904492D01*
X1385570Y-1913382D01*
X1376680Y-1924100D01*
X1370330Y-1935835D01*
X1366520Y-1948738D01*
X1365250Y-1962657D01*
X1366520Y-1976475D01*
X1370330Y-1989277D01*
X1376680Y-2001012D01*
X1385570Y-2011680D01*
X1396238Y-2020570D01*
X1407972Y-2026920D01*
X1420774Y-2030730D01*
X1434592Y-2032000D01*
X1434592Y-1992375D01*
X1428699Y-1991817D01*
X1423314Y-1990140D01*
X1418285Y-1987397D01*
X1413764Y-1983486D01*
X1409903Y-1978964D01*
X1407109Y-1973935D01*
X1405432Y-1968550D01*
X1404874Y-1962657D01*
X1405432Y-1956663D01*
X1407109Y-1951177D01*
X1409903Y-1946148D01*
X1413764Y-1941575D01*
X1418285Y-1937664D01*
X1423314Y-1934921D01*
X1428699Y-1933244D01*
X1434592Y-1932686D01*
G37*
G36*
X1444752Y-1893062D02*
G01*
X1444752Y-1932686D01*
X1450644Y-1933244D01*
X1456080Y-1934921D01*
X1461058Y-1937664D01*
X1465580Y-1941575D01*
X1469491Y-1946148D01*
X1472234Y-1951177D01*
X1473911Y-1956663D01*
X1474470Y-1962657D01*
X1473911Y-1968550D01*
X1472234Y-1973935D01*
X1469491Y-1978964D01*
X1465580Y-1983486D01*
X1461058Y-1987397D01*
X1456080Y-1990140D01*
X1450644Y-1991817D01*
X1444752Y-1992375D01*
X1444752Y-2032000D01*
X1458569Y-2030730D01*
X1471371Y-2026920D01*
X1483106Y-2020570D01*
X1493774Y-2011680D01*
X1502664Y-2001012D01*
X1509014Y-1989277D01*
X1512824Y-1976475D01*
X1514094Y-1962657D01*
X1512824Y-1948738D01*
X1509014Y-1935835D01*
X1502664Y-1924100D01*
X1493774Y-1913382D01*
X1483106Y-1904492D01*
X1471371Y-1898142D01*
X1458569Y-1894332D01*
G37*
G36*
X608584Y-1905507D02*
G01*
X571500Y-1942592D01*
X571500Y-2032000D01*
X611124Y-2032000D01*
X611124Y-1952498D01*
X633476Y-1930400D01*
G37*
G36*
X1216406Y-1933702D02*
G01*
X1216406Y-2032000D01*
X1256030Y-2032000D01*
X1256030Y-1973580D01*
G37*
G36*
X1018032Y-1962657D02*
G01*
X1019302Y-1976475D01*
X1023112Y-1989277D01*
X1029462Y-2001012D01*
X1038352Y-2011680D01*
X1049020Y-2020570D01*
X1060754Y-2026920D01*
X1073556Y-2030730D01*
X1087374Y-2032000D01*
X1101293Y-2030730D01*
X1114196Y-2026920D01*
X1125931Y-2020570D01*
X1136650Y-2011680D01*
X1145540Y-2001012D01*
X1151890Y-1989277D01*
X1155700Y-1976475D01*
X1156970Y-1962657D01*
X1117092Y-1962657D01*
X1116533Y-1968550D01*
X1114958Y-1973935D01*
X1112215Y-1978964D01*
X1108456Y-1983486D01*
X1103884Y-1987397D01*
X1098854Y-1990140D01*
X1093368Y-1991817D01*
X1087374Y-1992375D01*
X1081481Y-1991817D01*
X1075994Y-1990140D01*
X1070965Y-1987397D01*
X1066292Y-1983486D01*
X1062532Y-1978964D01*
X1059840Y-1973935D01*
X1058214Y-1968550D01*
X1057656Y-1962657D01*
G37*
G36*
X720344Y-2097786D02*
G01*
X720344Y-2147570D01*
X859282Y-2286508D01*
X859282Y-2236724D01*
G37*
G36*
X1018032Y-2097786D02*
G01*
X1018032Y-2147570D01*
X1156970Y-2286508D01*
X1156970Y-2236724D01*
G37*
G36*
X938530Y-2101850D02*
G01*
X913892Y-2126742D01*
X968502Y-2181098D01*
X968502Y-2201164D01*
X919734Y-2201164D01*
X919734Y-2240788D01*
X968502Y-2240788D01*
X968502Y-2260600D01*
X1008126Y-2260600D01*
X1008126Y-2171192D01*
G37*
G36*
X819658Y-2121662D02*
G01*
X819658Y-2180336D01*
X859282Y-2219960D01*
X859282Y-2121662D01*
G37*
G36*
X1117092Y-2121662D02*
G01*
X1117092Y-2180336D01*
X1156970Y-2219960D01*
X1156970Y-2121662D01*
G37*
G36*
X1236218Y-2121662D02*
G01*
X1222400Y-2122932D01*
X1209598Y-2126742D01*
X1197864Y-2133092D01*
X1187196Y-2141982D01*
X1178306Y-2152700D01*
X1171956Y-2164435D01*
X1168146Y-2177338D01*
X1166876Y-2191258D01*
X1168146Y-2205075D01*
X1171956Y-2217877D01*
X1178306Y-2229612D01*
X1187196Y-2240280D01*
X1197864Y-2249170D01*
X1209598Y-2255520D01*
X1222400Y-2259330D01*
X1236218Y-2260600D01*
X1236218Y-2220976D01*
X1230325Y-2220417D01*
X1224838Y-2218740D01*
X1219809Y-2215997D01*
X1215136Y-2212086D01*
X1211376Y-2207564D01*
X1208684Y-2202535D01*
X1207058Y-2197150D01*
X1206500Y-2191258D01*
X1207058Y-2185263D01*
X1208684Y-2179777D01*
X1211376Y-2174748D01*
X1215136Y-2170176D01*
X1219809Y-2166264D01*
X1224838Y-2163521D01*
X1230325Y-2161844D01*
X1236218Y-2161286D01*
G37*
G36*
X1246124Y-2121662D02*
G01*
X1246124Y-2161286D01*
X1252118Y-2161844D01*
X1257604Y-2163521D01*
X1262634Y-2166264D01*
X1267206Y-2170176D01*
X1270965Y-2174748D01*
X1273708Y-2179777D01*
X1275283Y-2185263D01*
X1275842Y-2191258D01*
X1275283Y-2197150D01*
X1273708Y-2202535D01*
X1270965Y-2207564D01*
X1267206Y-2212086D01*
X1262634Y-2215997D01*
X1257604Y-2218740D01*
X1252118Y-2220417D01*
X1246124Y-2220976D01*
X1246124Y-2260600D01*
X1260043Y-2259330D01*
X1272946Y-2255520D01*
X1284681Y-2249170D01*
X1295400Y-2240280D01*
X1304290Y-2229612D01*
X1310640Y-2217877D01*
X1314450Y-2205075D01*
X1315720Y-2191258D01*
X1314450Y-2177338D01*
X1310640Y-2164435D01*
X1304290Y-2152700D01*
X1295400Y-2141982D01*
X1284681Y-2133092D01*
X1272946Y-2126742D01*
X1260043Y-2122932D01*
G37*
G36*
X906271Y-2134108D02*
G01*
X869187Y-2171192D01*
X869187Y-2260600D01*
X908812Y-2260600D01*
X908812Y-2181098D01*
X931164Y-2159000D01*
G37*
G36*
X720344Y-2162302D02*
G01*
X720344Y-2260600D01*
X759968Y-2260600D01*
X759968Y-2202180D01*
G37*
G36*
X1018032Y-2162302D02*
G01*
X1018032Y-2260600D01*
X1057656Y-2260600D01*
X1057656Y-2202180D01*
G37*
G36*
X2888234Y-222250D02*
G01*
X2863342Y-247142D01*
X2917952Y-301752D01*
X2917952Y-321564D01*
X2869438Y-321564D01*
X2869438Y-361188D01*
X2917952Y-361188D01*
X2917952Y-381000D01*
X2957830Y-381000D01*
X2957830Y-291592D01*
G37*
G36*
X2476500Y-242062D02*
G01*
X2476500Y-381000D01*
X2516124Y-381000D01*
X2516124Y-242062D01*
G37*
G36*
X2625344Y-242062D02*
G01*
X2625344Y-381000D01*
X2664968Y-381000D01*
X2664968Y-242062D01*
G37*
G36*
X2674874Y-242062D02*
G01*
X2674874Y-381000D01*
X2714498Y-381000D01*
X2714498Y-281686D01*
X2734564Y-281686D01*
X2734564Y-242062D01*
G37*
G36*
X2744470Y-242062D02*
G01*
X2744470Y-281686D01*
X2750362Y-282244D01*
X2755798Y-283921D01*
X2760776Y-286664D01*
X2765298Y-290576D01*
X2769209Y-295148D01*
X2771952Y-300177D01*
X2773629Y-305663D01*
X2774188Y-311658D01*
X2773629Y-317550D01*
X2771952Y-322935D01*
X2769209Y-327964D01*
X2765298Y-332486D01*
X2760776Y-336346D01*
X2755798Y-339140D01*
X2750362Y-340817D01*
X2744470Y-341376D01*
X2724658Y-341376D01*
X2724658Y-381000D01*
X2744470Y-381000D01*
X2758287Y-379730D01*
X2771089Y-375920D01*
X2782824Y-369570D01*
X2793492Y-360680D01*
X2802382Y-350012D01*
X2808732Y-338277D01*
X2812542Y-325475D01*
X2813812Y-311658D01*
X2812542Y-297738D01*
X2808732Y-284835D01*
X2802382Y-273100D01*
X2793492Y-262382D01*
X2782824Y-253492D01*
X2771089Y-247142D01*
X2758287Y-243332D01*
G37*
G36*
X2967736Y-242062D02*
G01*
X2967736Y-381000D01*
X3007360Y-381000D01*
X3007360Y-281686D01*
X3027172Y-281686D01*
X3027172Y-242062D01*
G37*
G36*
X3037078Y-242062D02*
G01*
X3037078Y-281686D01*
X3042970Y-282244D01*
X3048457Y-283921D01*
X3053537Y-286664D01*
X3058160Y-290576D01*
X3061970Y-295148D01*
X3064662Y-300177D01*
X3066288Y-305663D01*
X3066796Y-311658D01*
X3066288Y-317550D01*
X3064662Y-322935D01*
X3061970Y-327964D01*
X3058160Y-332486D01*
X3053537Y-336346D01*
X3048457Y-339140D01*
X3042970Y-340817D01*
X3037078Y-341376D01*
X3017266Y-341376D01*
X3017266Y-381000D01*
X3056890Y-420624D01*
X3113024Y-420624D01*
X3067050Y-374650D01*
X3072130Y-371856D01*
X3077006Y-368604D01*
X3081680Y-364896D01*
X3086100Y-360680D01*
X3094990Y-350012D01*
X3101340Y-338277D01*
X3105150Y-325475D01*
X3106420Y-311658D01*
X3105150Y-297738D01*
X3101340Y-284835D01*
X3094990Y-273100D01*
X3086100Y-262382D01*
X3075432Y-253492D01*
X3063697Y-247142D01*
X3050895Y-243332D01*
G37*
G36*
X2855976Y-254508D02*
G01*
X2818892Y-291592D01*
X2818892Y-381000D01*
X2858516Y-381000D01*
X2858516Y-301752D01*
X2880868Y-279400D01*
G37*
G36*
X2526030Y-341376D02*
G01*
X2526030Y-381000D01*
X2615438Y-381000D01*
X2615438Y-341376D01*
G37*
G36*
X2148332Y-1122426D02*
G01*
X2148332Y-1132332D01*
X2167890Y-1132332D01*
X2167890Y-1122426D01*
G37*
G36*
X2133600Y-1137158D02*
G01*
X2133600Y-1156716D01*
X2182368Y-1156716D01*
X2182368Y-1137158D01*
G37*
G36*
X2148332Y-1161542D02*
G01*
X2148332Y-1171448D01*
X2167890Y-1171448D01*
X2167890Y-1161542D01*
G37*
G36*
X2641600Y-1137158D02*
G01*
X2641600Y-1156716D01*
X2690368Y-1156716D01*
X2690368Y-1137158D01*
G37*
G36*
X2148332Y-1630426D02*
G01*
X2148332Y-1640332D01*
X2167890Y-1640332D01*
X2167890Y-1630426D01*
G37*
G36*
X2133600Y-1645157D02*
G01*
X2133600Y-1664716D01*
X2182368Y-1664716D01*
X2182368Y-1645157D01*
G37*
G36*
X2148332Y-1669542D02*
G01*
X2148332Y-1679448D01*
X2167890Y-1679448D01*
X2167890Y-1669542D01*
G37*
G36*
X2641600Y-1645157D02*
G01*
X2641600Y-1664716D01*
X2690368Y-1664716D01*
X2690368Y-1645157D01*
G37*
G36*
X2336800Y-1903222D02*
G01*
X2336800Y-1951989D01*
X2415032Y-2029968D01*
X2493010Y-1951989D01*
X2493010Y-1903222D01*
X2415032Y-1981200D01*
G37*
G36*
X2502916Y-1908048D02*
G01*
X2502916Y-1966468D01*
X2541778Y-1966468D01*
X2541778Y-1908048D01*
G37*
G36*
X2600452Y-1908048D02*
G01*
X2600452Y-1966468D01*
X2639568Y-1966468D01*
X2639568Y-1908048D01*
G37*
G36*
X2649220Y-1908048D02*
G01*
X2649220Y-1947164D01*
X2706878Y-1947164D01*
X2745994Y-1908048D01*
G37*
G36*
X2760726Y-1908048D02*
G01*
X2623820Y-2044700D01*
X2672842Y-2044700D01*
X2795778Y-1921764D01*
X2795778Y-1947164D01*
X2853436Y-1947164D01*
X2892552Y-1908048D01*
G37*
G36*
X2907030Y-1908048D02*
G01*
X2786126Y-2028952D01*
X2786126Y-2005584D01*
X2728468Y-2005584D01*
X2689352Y-2044700D01*
X2819146Y-2044700D01*
X2942336Y-1921713D01*
X2942336Y-2044700D01*
X2981198Y-2044700D01*
X2981198Y-1908048D01*
G37*
G36*
X3088640Y-1908048D02*
G01*
X3088640Y-2044700D01*
X3127756Y-2044700D01*
X3127756Y-1995932D01*
X3205988Y-1995932D01*
X3205988Y-1956816D01*
X3127756Y-1956816D01*
X3127756Y-1908048D01*
G37*
G36*
X3137662Y-1908048D02*
G01*
X3137662Y-1947164D01*
X3225546Y-1947164D01*
X3225546Y-1908048D01*
G37*
G36*
X2493010Y-1966468D02*
G01*
X2453894Y-2005584D01*
X2453894Y-2044700D01*
X2493010Y-2044700D01*
G37*
G36*
X2336800Y-1966468D02*
G01*
X2336800Y-2044700D01*
X2375916Y-2044700D01*
X2375916Y-2005584D01*
G37*
G36*
X2502916Y-1976374D02*
G01*
X2504135Y-1989988D01*
X2507894Y-2002536D01*
X2514041Y-2014118D01*
X2522728Y-2024634D01*
X2533294Y-2033422D01*
X2544876Y-2039670D01*
X2557526Y-2043430D01*
X2571242Y-2044700D01*
X2584856Y-2043430D01*
X2597404Y-2039670D01*
X2608986Y-2033422D01*
X2619502Y-2024634D01*
X2628290Y-2014118D01*
X2634538Y-2002536D01*
X2638298Y-1989937D01*
X2639568Y-1976374D01*
X2600452Y-1976374D01*
X2599893Y-1982216D01*
X2598318Y-1987600D01*
X2595575Y-1992528D01*
X2591816Y-1996948D01*
X2587294Y-2000707D01*
X2582367Y-2003399D01*
X2577033Y-2005025D01*
X2571242Y-2005584D01*
X2565349Y-2005025D01*
X2559964Y-2003399D01*
X2554935Y-2000707D01*
X2550414Y-1996948D01*
X2546654Y-1992528D01*
X2543962Y-1987600D01*
X2542336Y-1982216D01*
X2541778Y-1976374D01*
G37*
G36*
X2874772Y-2005584D02*
G01*
X2835910Y-2044700D01*
X2932430Y-2044700D01*
X2932430Y-2005584D01*
G37*
G36*
X2991104Y-2005584D02*
G01*
X2991104Y-2044700D01*
X3078988Y-2044700D01*
X3078988Y-2005584D01*
G37*
G36*
X3137662Y-2005584D02*
G01*
X3137662Y-2044700D01*
X3225546Y-2044700D01*
X3225546Y-2005584D01*
G37*
G36*
X2713990Y-1481074D02*
G01*
X2700782Y-1483563D01*
X2689606Y-1490980D01*
X2682189Y-1502105D01*
X2679700Y-1515110D01*
X2682189Y-1528318D01*
X2689606Y-1539494D01*
X2700782Y-1546910D01*
X2713990Y-1549400D01*
X2713990Y-1529842D01*
X2711043Y-1529588D01*
X2708351Y-1528775D01*
X2705862Y-1527403D01*
X2703576Y-1525524D01*
X2701696Y-1523238D01*
X2700324Y-1520748D01*
X2699512Y-1518056D01*
X2699258Y-1515110D01*
X2699512Y-1512265D01*
X2700324Y-1509623D01*
X2701696Y-1507185D01*
X2703576Y-1504950D01*
X2705862Y-1503070D01*
X2708351Y-1501698D01*
X2711043Y-1500886D01*
X2713990Y-1500632D01*
G37*
G36*
X2718816Y-1481074D02*
G01*
X2718816Y-1500632D01*
X2721762Y-1500886D01*
X2724454Y-1501698D01*
X2726944Y-1503070D01*
X2729230Y-1504950D01*
X2731008Y-1507185D01*
X2732278Y-1509623D01*
X2733040Y-1512265D01*
X2733294Y-1515110D01*
X2733040Y-1518056D01*
X2732278Y-1520748D01*
X2731008Y-1523238D01*
X2729230Y-1525524D01*
X2726944Y-1527403D01*
X2724454Y-1528775D01*
X2721762Y-1529588D01*
X2718816Y-1529842D01*
X2718816Y-1549400D01*
X2731973Y-1546910D01*
X2742946Y-1539494D01*
X2750362Y-1528318D01*
X2752852Y-1515110D01*
X2750362Y-1502105D01*
X2742946Y-1490980D01*
X2731973Y-1483563D01*
G37*
G36*
X2757932Y-1481074D02*
G01*
X2757932Y-1510284D01*
X2777236Y-1510284D01*
X2777236Y-1481074D01*
G37*
G36*
X2806700Y-1481074D02*
G01*
X2806700Y-1510284D01*
X2826258Y-1510284D01*
X2826258Y-1481074D01*
G37*
G36*
X2831084Y-1481074D02*
G01*
X2831084Y-1500632D01*
X2889758Y-1500632D01*
X2889758Y-1481074D01*
G37*
G36*
X2850642Y-1505458D02*
G01*
X2850642Y-1549400D01*
X2870200Y-1549400D01*
X2870200Y-1505458D01*
G37*
G36*
X2757932Y-1515110D02*
G01*
X2760421Y-1528318D01*
X2767838Y-1539494D01*
X2778810Y-1546910D01*
X2791968Y-1549400D01*
X2805125Y-1546910D01*
X2816098Y-1539494D01*
X2823718Y-1528318D01*
X2826258Y-1515110D01*
X2806700Y-1515110D01*
X2806446Y-1518056D01*
X2805633Y-1520748D01*
X2804261Y-1523238D01*
X2802382Y-1525524D01*
X2800096Y-1527403D01*
X2797606Y-1528775D01*
X2794914Y-1529588D01*
X2791968Y-1529842D01*
X2789021Y-1529588D01*
X2786329Y-1528775D01*
X2783840Y-1527403D01*
X2781554Y-1525524D01*
X2779674Y-1523238D01*
X2778302Y-1520748D01*
X2777490Y-1518056D01*
X2777236Y-1515110D01*
G37*
G36*
X2767584Y-961390D02*
G01*
X2767584Y-985774D01*
X2835910Y-1054100D01*
X2835910Y-1029716D01*
G37*
G36*
X2743200Y-973074D02*
G01*
X2743200Y-1041400D01*
X2762758Y-1041400D01*
X2762758Y-973074D01*
G37*
G36*
X2816352Y-973074D02*
G01*
X2816352Y-1001776D01*
X2835910Y-1021334D01*
X2835910Y-973074D01*
G37*
G36*
X2767584Y-993140D02*
G01*
X2767584Y-1041400D01*
X2787142Y-1041400D01*
X2787142Y-1012698D01*
G37*
G36*
X2535936Y-2332990D02*
G01*
X2535936Y-2357374D01*
X2604262Y-2425700D01*
X2604262Y-2401316D01*
G37*
G36*
X2282190Y-2344674D02*
G01*
X2268982Y-2347163D01*
X2257806Y-2354580D01*
X2250389Y-2365705D01*
X2247900Y-2378710D01*
X2250389Y-2391918D01*
X2257806Y-2403094D01*
X2268982Y-2410510D01*
X2282190Y-2413000D01*
X2282190Y-2393442D01*
X2279243Y-2393188D01*
X2276551Y-2392375D01*
X2274062Y-2391003D01*
X2271776Y-2389124D01*
X2269896Y-2386838D01*
X2268524Y-2384348D01*
X2267712Y-2381656D01*
X2267458Y-2378710D01*
X2267712Y-2375865D01*
X2268524Y-2373223D01*
X2269896Y-2370785D01*
X2271776Y-2368550D01*
X2274062Y-2366670D01*
X2276551Y-2365298D01*
X2279243Y-2364486D01*
X2282190Y-2364232D01*
G37*
G36*
X2287016Y-2344674D02*
G01*
X2287016Y-2364232D01*
X2311400Y-2364232D01*
X2311400Y-2344674D01*
G37*
G36*
X2316226Y-2344674D02*
G01*
X2316226Y-2413000D01*
X2335784Y-2413000D01*
X2335784Y-2364232D01*
X2345436Y-2364232D01*
X2345436Y-2344674D01*
G37*
G36*
X2350516Y-2344674D02*
G01*
X2350516Y-2364232D01*
X2353462Y-2364486D01*
X2356104Y-2365298D01*
X2358542Y-2366670D01*
X2360676Y-2368550D01*
X2362555Y-2370785D01*
X2363927Y-2373223D01*
X2364740Y-2375865D01*
X2364994Y-2378710D01*
X2364740Y-2381656D01*
X2363927Y-2384348D01*
X2362555Y-2386838D01*
X2360676Y-2389124D01*
X2358542Y-2391003D01*
X2356104Y-2392375D01*
X2353462Y-2393188D01*
X2350516Y-2393442D01*
X2340610Y-2393442D01*
X2340610Y-2413000D01*
X2360168Y-2432558D01*
X2387854Y-2432558D01*
X2365248Y-2409698D01*
X2367737Y-2408428D01*
X2372461Y-2405126D01*
X2374646Y-2403094D01*
X2382062Y-2391918D01*
X2384552Y-2378710D01*
X2382062Y-2365705D01*
X2374646Y-2354580D01*
X2363520Y-2347163D01*
G37*
G36*
X2389378Y-2344674D02*
G01*
X2389378Y-2413000D01*
X2408936Y-2413000D01*
X2408936Y-2388616D01*
X2448052Y-2388616D01*
X2448052Y-2369058D01*
X2408936Y-2369058D01*
X2408936Y-2344674D01*
G37*
G36*
X2414016Y-2344674D02*
G01*
X2414016Y-2364232D01*
X2457958Y-2364232D01*
X2457958Y-2344674D01*
G37*
G36*
X2462784Y-2344674D02*
G01*
X2462784Y-2413000D01*
X2482342Y-2413000D01*
X2482342Y-2388616D01*
X2521458Y-2388616D01*
X2521458Y-2369058D01*
X2482342Y-2369058D01*
X2482342Y-2344674D01*
G37*
G36*
X2487168Y-2344674D02*
G01*
X2487168Y-2364232D01*
X2531110Y-2364232D01*
X2531110Y-2344674D01*
G37*
G36*
X2584704Y-2344674D02*
G01*
X2584704Y-2373376D01*
X2604262Y-2392934D01*
X2604262Y-2344674D01*
G37*
G36*
X2535936Y-2364740D02*
G01*
X2535936Y-2413000D01*
X2555494Y-2413000D01*
X2555494Y-2384298D01*
G37*
G36*
X2282190Y-2369058D02*
G01*
X2282190Y-2388616D01*
X2291842Y-2388616D01*
X2291842Y-2393442D01*
X2287016Y-2393442D01*
X2287016Y-2413000D01*
X2311400Y-2413000D01*
X2311400Y-2369058D01*
G37*
G36*
X2414016Y-2393442D02*
G01*
X2414016Y-2413000D01*
X2457958Y-2413000D01*
X2457958Y-2393442D01*
G37*
G36*
X2487168Y-2393442D02*
G01*
X2487168Y-2413000D01*
X2531110Y-2413000D01*
X2531110Y-2393442D01*
G37*
G36*
X2245868Y-3281426D02*
G01*
X2245868Y-3330448D01*
X2382520Y-3467100D01*
X2382520Y-3418332D01*
G37*
G36*
X3017520Y-3285490D02*
G01*
X2992882Y-3309874D01*
X3046730Y-3363468D01*
X3046730Y-3383026D01*
X2998978Y-3383026D01*
X2998978Y-3422142D01*
X3046730Y-3422142D01*
X3046730Y-3441700D01*
X3085846Y-3441700D01*
X3085846Y-3353815D01*
G37*
G36*
X2197100Y-3305048D02*
G01*
X2197100Y-3441700D01*
X2236216Y-3441700D01*
X2236216Y-3305048D01*
G37*
G36*
X2343658Y-3305048D02*
G01*
X2343658Y-3362706D01*
X2382520Y-3401568D01*
X2382520Y-3305048D01*
G37*
G36*
X2392426Y-3305048D02*
G01*
X2392426Y-3344164D01*
X2509520Y-3344164D01*
X2509520Y-3305048D01*
G37*
G36*
X2519426Y-3305048D02*
G01*
X2519426Y-3441700D01*
X2558542Y-3441700D01*
X2558542Y-3392932D01*
X2636520Y-3392932D01*
X2636520Y-3353815D01*
X2558542Y-3353815D01*
X2558542Y-3305048D01*
G37*
G36*
X2568194Y-3305048D02*
G01*
X2568194Y-3344164D01*
X2656078Y-3344164D01*
X2656078Y-3305048D01*
G37*
G36*
X2665730Y-3305048D02*
G01*
X2665730Y-3441700D01*
X2704846Y-3441700D01*
X2704846Y-3344164D01*
X2724404Y-3344164D01*
X2724404Y-3305048D01*
G37*
G36*
X2734310Y-3305048D02*
G01*
X2734310Y-3344164D01*
X2740101Y-3344672D01*
X2745435Y-3346246D01*
X2750362Y-3348888D01*
X2754884Y-3352546D01*
X2758643Y-3357067D01*
X2761386Y-3362045D01*
X2762961Y-3367481D01*
X2763520Y-3373374D01*
X2762961Y-3379215D01*
X2761386Y-3384600D01*
X2758643Y-3389528D01*
X2754884Y-3393948D01*
X2750362Y-3397707D01*
X2745435Y-3400399D01*
X2740101Y-3402025D01*
X2734310Y-3402584D01*
X2714752Y-3402584D01*
X2714752Y-3441700D01*
X2753614Y-3480815D01*
X2808986Y-3480815D01*
X2763520Y-3435350D01*
X2768600Y-3432606D01*
X2773476Y-3429355D01*
X2778150Y-3425748D01*
X2782570Y-3421634D01*
X2791358Y-3411067D01*
X2797606Y-3399536D01*
X2801366Y-3386937D01*
X2802636Y-3373374D01*
X2801366Y-3359708D01*
X2797606Y-3347059D01*
X2791358Y-3335578D01*
X2782570Y-3325114D01*
X2772054Y-3316325D01*
X2760472Y-3310077D01*
X2747924Y-3306318D01*
G37*
G36*
X2812288Y-3305048D02*
G01*
X2812288Y-3344164D01*
X2948940Y-3344164D01*
X2948940Y-3305048D01*
G37*
G36*
X3158998Y-3305048D02*
G01*
X3145434Y-3306318D01*
X3132836Y-3310077D01*
X3121304Y-3316325D01*
X3110738Y-3325114D01*
X3101949Y-3335578D01*
X3095701Y-3347059D01*
X3091942Y-3359708D01*
X3090672Y-3373374D01*
X3091942Y-3386937D01*
X3095701Y-3399536D01*
X3101949Y-3411067D01*
X3110738Y-3421634D01*
X3121304Y-3430422D01*
X3132836Y-3436670D01*
X3145434Y-3440429D01*
X3158998Y-3441700D01*
X3158998Y-3402584D01*
X3153156Y-3402025D01*
X3147771Y-3400399D01*
X3142843Y-3397707D01*
X3138424Y-3393948D01*
X3134664Y-3389528D01*
X3131972Y-3384600D01*
X3130346Y-3379215D01*
X3129788Y-3373374D01*
X3130346Y-3367481D01*
X3131972Y-3362045D01*
X3134664Y-3357067D01*
X3138424Y-3352546D01*
X3142843Y-3348888D01*
X3147771Y-3346246D01*
X3153156Y-3344672D01*
X3158998Y-3344164D01*
G37*
G36*
X3168650Y-3305048D02*
G01*
X3168650Y-3344164D01*
X3217672Y-3344164D01*
X3217672Y-3305048D01*
G37*
G36*
X3227324Y-3305048D02*
G01*
X3227324Y-3441700D01*
X3266440Y-3441700D01*
X3266440Y-3392932D01*
X3344672Y-3392932D01*
X3344672Y-3353815D01*
X3266440Y-3353815D01*
X3266440Y-3305048D01*
G37*
G36*
X3276092Y-3305048D02*
G01*
X3276092Y-3344164D01*
X3363976Y-3344164D01*
X3363976Y-3305048D01*
G37*
G36*
X2985770Y-3317240D02*
G01*
X2948940Y-3353815D01*
X2948940Y-3441700D01*
X2988056Y-3441700D01*
X2988056Y-3363468D01*
X3010154Y-3341624D01*
G37*
G36*
X2245868Y-3344926D02*
G01*
X2245868Y-3441700D01*
X2284984Y-3441700D01*
X2284984Y-3384042D01*
G37*
G36*
X2431542Y-3353815D02*
G01*
X2431542Y-3441700D01*
X2470658Y-3441700D01*
X2470658Y-3353815D01*
G37*
G36*
X2861056Y-3353815D02*
G01*
X2861056Y-3392932D01*
X2929636Y-3392932D01*
X2929636Y-3353815D01*
G37*
G36*
X2812288Y-3353815D02*
G01*
X2812288Y-3441700D01*
X2851404Y-3441700D01*
X2851404Y-3353815D01*
G37*
G36*
X2568194Y-3402584D02*
G01*
X2568194Y-3441700D01*
X2656078Y-3441700D01*
X2656078Y-3402584D01*
G37*
G36*
X3168650Y-3402584D02*
G01*
X3168650Y-3441700D01*
X3217672Y-3441700D01*
X3217672Y-3402584D01*
G37*
G36*
X3276092Y-3402584D02*
G01*
X3276092Y-3441700D01*
X3363976Y-3441700D01*
X3363976Y-3402584D01*
G37*
G36*
X2641600Y-3042158D02*
G01*
X2641600Y-3061716D01*
X2690368Y-3061716D01*
X2690368Y-3042158D01*
G37*
G36*
X2148332Y-3027426D02*
G01*
X2148332Y-3037332D01*
X2167890Y-3037332D01*
X2167890Y-3027426D01*
G37*
G36*
X2133600Y-3042158D02*
G01*
X2133600Y-3061716D01*
X2182368Y-3061716D01*
X2182368Y-3042158D01*
G37*
G36*
X2148332Y-3066542D02*
G01*
X2148332Y-3076448D01*
X2167890Y-3076448D01*
X2167890Y-3066542D01*
G37*
G36*
X2641600Y-2534158D02*
G01*
X2641600Y-2553716D01*
X2690368Y-2553716D01*
X2690368Y-2534158D01*
G37*
G36*
X2148332Y-2519426D02*
G01*
X2148332Y-2529332D01*
X2167890Y-2529332D01*
X2167890Y-2519426D01*
G37*
G36*
X2133600Y-2534158D02*
G01*
X2133600Y-2553716D01*
X2182368Y-2553716D01*
X2182368Y-2534158D01*
G37*
G36*
X2148332Y-2558542D02*
G01*
X2148332Y-2568448D01*
X2167890Y-2568448D01*
X2167890Y-2558542D01*
G37*
G36*
X2286000Y-2852674D02*
G01*
X2286000Y-2921000D01*
X2305558Y-2921000D01*
X2305558Y-2872232D01*
X2315210Y-2872232D01*
X2315210Y-2852674D01*
G37*
G36*
X2320290Y-2852674D02*
G01*
X2320290Y-2872232D01*
X2323134Y-2872486D01*
X2325776Y-2873298D01*
X2328214Y-2874670D01*
X2330450Y-2876550D01*
X2332329Y-2878785D01*
X2333701Y-2881223D01*
X2334514Y-2883865D01*
X2334768Y-2886710D01*
X2334514Y-2889656D01*
X2333701Y-2892348D01*
X2332329Y-2894838D01*
X2330450Y-2897124D01*
X2328214Y-2899003D01*
X2325776Y-2900375D01*
X2323134Y-2901188D01*
X2320290Y-2901442D01*
X2310384Y-2901442D01*
X2310384Y-2921000D01*
X2329942Y-2940558D01*
X2357628Y-2940558D01*
X2334768Y-2917698D01*
X2337358Y-2916428D01*
X2339848Y-2914904D01*
X2342184Y-2913126D01*
X2344420Y-2911094D01*
X2351836Y-2899918D01*
X2354326Y-2886710D01*
X2351836Y-2873705D01*
X2344420Y-2862580D01*
X2333294Y-2855163D01*
G37*
G36*
X2359152Y-2852674D02*
G01*
X2359152Y-2921000D01*
X2378710Y-2921000D01*
X2378710Y-2896616D01*
X2417826Y-2896616D01*
X2417826Y-2877058D01*
X2378710Y-2877058D01*
X2378710Y-2852674D01*
G37*
G36*
X2383536Y-2852674D02*
G01*
X2383536Y-2872232D01*
X2427478Y-2872232D01*
X2427478Y-2852674D01*
G37*
G36*
X2432558Y-2852674D02*
G01*
X2432558Y-2921000D01*
X2452116Y-2921000D01*
X2452116Y-2872232D01*
X2461768Y-2872232D01*
X2461768Y-2852674D01*
G37*
G36*
X2466594Y-2852674D02*
G01*
X2466594Y-2872232D01*
X2469540Y-2872486D01*
X2472232Y-2873298D01*
X2474722Y-2874670D01*
X2477008Y-2876550D01*
X2478887Y-2878785D01*
X2480259Y-2881223D01*
X2481072Y-2883865D01*
X2481326Y-2886710D01*
X2481072Y-2889656D01*
X2480259Y-2892348D01*
X2478887Y-2894838D01*
X2477008Y-2897124D01*
X2474722Y-2899003D01*
X2472232Y-2900375D01*
X2469540Y-2901188D01*
X2466594Y-2901442D01*
X2456942Y-2901442D01*
X2456942Y-2921000D01*
X2466594Y-2921000D01*
X2479751Y-2918510D01*
X2490724Y-2911094D01*
X2498344Y-2899918D01*
X2500884Y-2886710D01*
X2498344Y-2873705D01*
X2490724Y-2862580D01*
X2479751Y-2855163D01*
G37*
G36*
X2383536Y-2901442D02*
G01*
X2383536Y-2921000D01*
X2427478Y-2921000D01*
X2427478Y-2901442D01*
G37*
G36*
X2959100Y-2344674D02*
G01*
X2959100Y-2364232D01*
X3017774Y-2364232D01*
X3017774Y-2344674D01*
G37*
G36*
X3022600Y-2344674D02*
G01*
X3022600Y-2413000D01*
X3042158Y-2413000D01*
X3042158Y-2364232D01*
X3051810Y-2364232D01*
X3051810Y-2344674D01*
G37*
G36*
X3056636Y-2344674D02*
G01*
X3056636Y-2364232D01*
X3059582Y-2364486D01*
X3062274Y-2365298D01*
X3064764Y-2366670D01*
X3067050Y-2368550D01*
X3068929Y-2370785D01*
X3070301Y-2373223D01*
X3071114Y-2375865D01*
X3071368Y-2378710D01*
X3071114Y-2381656D01*
X3070301Y-2384348D01*
X3068929Y-2386838D01*
X3067050Y-2389124D01*
X3064764Y-2391003D01*
X3062274Y-2392375D01*
X3059582Y-2393188D01*
X3056636Y-2393442D01*
X3046984Y-2393442D01*
X3046984Y-2413000D01*
X3066542Y-2432558D01*
X3094228Y-2432558D01*
X3071368Y-2409698D01*
X3073958Y-2408428D01*
X3076448Y-2406904D01*
X3078784Y-2405126D01*
X3081020Y-2403094D01*
X3088436Y-2391918D01*
X3090926Y-2378710D01*
X3088436Y-2365705D01*
X3081020Y-2354580D01*
X3069844Y-2347163D01*
G37*
G36*
X3095752Y-2344674D02*
G01*
X3095752Y-2413000D01*
X3115310Y-2413000D01*
X3115310Y-2344674D01*
G37*
G36*
X3154426Y-2344674D02*
G01*
X3141268Y-2347163D01*
X3130296Y-2354580D01*
X3122676Y-2365705D01*
X3120136Y-2378710D01*
X3122676Y-2391918D01*
X3130296Y-2403094D01*
X3141268Y-2410510D01*
X3154426Y-2413000D01*
X3154426Y-2393442D01*
X3151479Y-2393188D01*
X3148787Y-2392375D01*
X3146298Y-2391003D01*
X3144012Y-2389124D01*
X3142132Y-2386838D01*
X3140760Y-2384348D01*
X3139948Y-2381656D01*
X3139694Y-2378710D01*
X3139948Y-2375865D01*
X3140760Y-2373223D01*
X3142132Y-2370785D01*
X3144012Y-2368550D01*
X3146298Y-2366670D01*
X3148787Y-2365298D01*
X3151479Y-2364486D01*
X3154426Y-2364232D01*
G37*
G36*
X3159252Y-2344674D02*
G01*
X3159252Y-2364232D01*
X3183636Y-2364232D01*
X3183636Y-2344674D01*
G37*
G36*
X3222752Y-2344674D02*
G01*
X3209594Y-2347163D01*
X3198622Y-2354580D01*
X3191002Y-2365705D01*
X3188462Y-2378710D01*
X3191002Y-2391918D01*
X3198622Y-2403094D01*
X3209594Y-2410510D01*
X3222752Y-2413000D01*
X3222752Y-2393442D01*
X3219805Y-2393188D01*
X3217113Y-2392375D01*
X3214624Y-2391003D01*
X3212338Y-2389124D01*
X3210458Y-2386838D01*
X3209086Y-2384348D01*
X3208274Y-2381656D01*
X3208020Y-2378710D01*
X3208274Y-2375865D01*
X3209086Y-2373223D01*
X3210458Y-2370785D01*
X3212338Y-2368550D01*
X3214624Y-2366670D01*
X3217113Y-2365298D01*
X3219805Y-2364486D01*
X3222752Y-2364232D01*
G37*
G36*
X3227578Y-2344674D02*
G01*
X3227578Y-2364232D01*
X3251962Y-2364232D01*
X3251962Y-2344674D01*
G37*
G36*
X3257042Y-2344674D02*
G01*
X3257042Y-2413000D01*
X3276600Y-2413000D01*
X3276600Y-2388616D01*
X3315462Y-2388616D01*
X3315462Y-2369058D01*
X3276600Y-2369058D01*
X3276600Y-2344674D01*
G37*
G36*
X3281426Y-2344674D02*
G01*
X3281426Y-2364232D01*
X3325368Y-2364232D01*
X3325368Y-2344674D01*
G37*
G36*
X3330194Y-2344674D02*
G01*
X3330194Y-2413000D01*
X3349751Y-2413000D01*
X3349751Y-2364232D01*
X3359404Y-2364232D01*
X3359404Y-2344674D01*
G37*
G36*
X3364484Y-2344674D02*
G01*
X3364484Y-2364232D01*
X3367328Y-2364486D01*
X3369970Y-2365298D01*
X3372408Y-2366670D01*
X3374644Y-2368550D01*
X3376523Y-2370785D01*
X3377895Y-2373223D01*
X3378708Y-2375865D01*
X3378962Y-2378710D01*
X3378708Y-2381656D01*
X3377895Y-2384348D01*
X3376523Y-2386838D01*
X3374644Y-2389124D01*
X3372408Y-2391003D01*
X3369970Y-2392375D01*
X3367328Y-2393188D01*
X3364484Y-2393442D01*
X3354578Y-2393442D01*
X3354578Y-2413000D01*
X3374136Y-2432558D01*
X3401822Y-2432558D01*
X3378962Y-2409698D01*
X3381552Y-2408428D01*
X3384042Y-2406904D01*
X3386378Y-2405126D01*
X3388614Y-2403094D01*
X3396030Y-2391918D01*
X3398520Y-2378710D01*
X3396030Y-2365705D01*
X3388614Y-2354580D01*
X3377488Y-2347163D01*
G37*
G36*
X2978658Y-2369058D02*
G01*
X2978658Y-2413000D01*
X2998216Y-2413000D01*
X2998216Y-2369058D01*
G37*
G36*
X3154426Y-2369058D02*
G01*
X3154426Y-2388616D01*
X3164078Y-2388616D01*
X3164078Y-2393442D01*
X3159252Y-2393442D01*
X3159252Y-2413000D01*
X3183636Y-2413000D01*
X3183636Y-2369058D01*
G37*
G36*
X3222752Y-2369058D02*
G01*
X3222752Y-2388616D01*
X3232658Y-2388616D01*
X3232658Y-2393442D01*
X3227578Y-2393442D01*
X3227578Y-2413000D01*
X3251962Y-2413000D01*
X3251962Y-2369058D01*
G37*
G36*
X3281426Y-2393442D02*
G01*
X3281426Y-2413000D01*
X3325368Y-2413000D01*
X3325368Y-2393442D01*
G37*
G36*
X3449828Y-2840990D02*
G01*
X3449828Y-2865374D01*
X3518154Y-2933700D01*
X3518154Y-2909316D01*
G37*
G36*
X2934716Y-2842768D02*
G01*
X2922524Y-2854960D01*
X2949194Y-2881884D01*
X2949194Y-2891790D01*
X2925318Y-2891790D01*
X2925318Y-2911348D01*
X2949194Y-2911348D01*
X2949194Y-2921000D01*
X2968752Y-2921000D01*
X2968752Y-2877058D01*
G37*
G36*
X3251962Y-2842768D02*
G01*
X3239770Y-2854960D01*
X3266694Y-2881884D01*
X3266694Y-2891790D01*
X3242818Y-2891790D01*
X3242818Y-2911348D01*
X3266694Y-2911348D01*
X3266694Y-2921000D01*
X3286251Y-2921000D01*
X3286251Y-2877058D01*
G37*
G36*
X2866390Y-2852674D02*
G01*
X2853182Y-2855163D01*
X2842006Y-2862580D01*
X2834589Y-2873705D01*
X2832100Y-2886710D01*
X2834589Y-2899918D01*
X2842006Y-2911094D01*
X2853182Y-2918510D01*
X2866390Y-2921000D01*
X2866390Y-2901442D01*
X2863443Y-2901188D01*
X2860751Y-2900375D01*
X2858262Y-2899003D01*
X2855976Y-2897124D01*
X2854096Y-2894838D01*
X2852724Y-2892348D01*
X2851912Y-2889656D01*
X2851658Y-2886710D01*
X2851912Y-2883865D01*
X2852724Y-2881223D01*
X2854096Y-2878785D01*
X2855976Y-2876550D01*
X2858262Y-2874670D01*
X2860751Y-2873298D01*
X2863443Y-2872486D01*
X2866390Y-2872232D01*
G37*
G36*
X2871216Y-2852674D02*
G01*
X2871216Y-2872232D01*
X2895600Y-2872232D01*
X2895600Y-2852674D01*
G37*
G36*
X2973578Y-2852674D02*
G01*
X2973578Y-2921000D01*
X2993136Y-2921000D01*
X2993136Y-2852674D01*
G37*
G36*
X3046984Y-2852674D02*
G01*
X3046984Y-2921000D01*
X3066542Y-2921000D01*
X3066542Y-2852674D01*
G37*
G36*
X3071368Y-2852674D02*
G01*
X3071368Y-2921000D01*
X3100578Y-2921000D01*
X3100578Y-2901442D01*
X3090926Y-2901442D01*
X3090926Y-2872232D01*
X3100578Y-2872232D01*
X3100578Y-2852674D01*
G37*
G36*
X3105658Y-2852674D02*
G01*
X3105658Y-2872232D01*
X3118307Y-2872282D01*
X3119069Y-2872638D01*
X3119729Y-2873298D01*
X3120085Y-2874060D01*
X3120085Y-2875026D01*
X3119729Y-2875889D01*
X3119069Y-2876651D01*
X3118307Y-2877007D01*
X3095752Y-2877058D01*
X3095752Y-2896616D01*
X3118307Y-2896666D01*
X3119069Y-2897022D01*
X3119729Y-2897682D01*
X3120085Y-2898444D01*
X3120085Y-2899511D01*
X3119729Y-2900375D01*
X3119069Y-2901035D01*
X3118307Y-2901391D01*
X3105658Y-2901442D01*
X3105658Y-2921000D01*
X3117850Y-2921000D01*
X3122168Y-2920593D01*
X3126181Y-2919425D01*
X3129889Y-2917444D01*
X3133344Y-2914650D01*
X3136138Y-2911195D01*
X3138119Y-2907436D01*
X3139287Y-2903321D01*
X3139694Y-2898902D01*
X3139490Y-2895650D01*
X3138830Y-2892552D01*
X3137712Y-2889554D01*
X3136138Y-2886710D01*
X3137712Y-2883966D01*
X3138830Y-2880969D01*
X3139490Y-2877870D01*
X3139694Y-2874518D01*
X3139287Y-2870200D01*
X3138119Y-2866186D01*
X3136138Y-2862478D01*
X3133344Y-2859024D01*
X3129889Y-2856230D01*
X3126181Y-2854248D01*
X3122168Y-2853080D01*
X3117850Y-2852674D01*
G37*
G36*
X3144520Y-2852674D02*
G01*
X3144520Y-2921000D01*
X3164078Y-2921000D01*
X3164078Y-2872232D01*
X3173984Y-2872232D01*
X3173984Y-2852674D01*
G37*
G36*
X3178810Y-2852674D02*
G01*
X3178810Y-2872232D01*
X3181756Y-2872486D01*
X3184448Y-2873298D01*
X3186938Y-2874670D01*
X3189224Y-2876550D01*
X3191103Y-2878785D01*
X3192475Y-2881223D01*
X3193288Y-2883865D01*
X3193542Y-2886710D01*
X3193288Y-2889656D01*
X3192475Y-2892348D01*
X3191103Y-2894838D01*
X3189224Y-2897124D01*
X3186938Y-2899003D01*
X3184448Y-2900375D01*
X3181756Y-2901188D01*
X3178810Y-2901442D01*
X3168904Y-2901442D01*
X3168904Y-2921000D01*
X3188462Y-2940558D01*
X3216148Y-2940558D01*
X3193542Y-2917698D01*
X3196031Y-2916428D01*
X3200755Y-2913126D01*
X3202940Y-2911094D01*
X3210356Y-2899918D01*
X3212846Y-2886710D01*
X3210356Y-2873705D01*
X3202940Y-2862580D01*
X3191967Y-2855163D01*
G37*
G36*
X3283712Y-2852674D02*
G01*
X3283712Y-2872232D01*
X3342386Y-2872232D01*
X3342386Y-2852674D01*
G37*
G36*
X3347212Y-2852674D02*
G01*
X3347212Y-2921000D01*
X3366770Y-2921000D01*
X3366770Y-2852674D01*
G37*
G36*
X3405886Y-2852674D02*
G01*
X3392728Y-2855163D01*
X3381756Y-2862580D01*
X3374136Y-2873705D01*
X3371596Y-2886710D01*
X3374136Y-2899918D01*
X3381756Y-2911094D01*
X3392728Y-2918510D01*
X3405886Y-2921000D01*
X3405886Y-2901442D01*
X3402939Y-2901188D01*
X3400247Y-2900375D01*
X3397758Y-2899003D01*
X3395472Y-2897124D01*
X3393592Y-2894838D01*
X3392220Y-2892348D01*
X3391408Y-2889656D01*
X3391154Y-2886710D01*
X3391408Y-2883865D01*
X3392220Y-2881223D01*
X3393592Y-2878785D01*
X3395472Y-2876550D01*
X3397758Y-2874670D01*
X3400247Y-2873298D01*
X3402939Y-2872486D01*
X3405886Y-2872232D01*
G37*
G36*
X3410712Y-2852674D02*
G01*
X3410712Y-2872232D01*
X3413658Y-2872486D01*
X3416350Y-2873298D01*
X3418840Y-2874670D01*
X3421126Y-2876550D01*
X3423005Y-2878785D01*
X3424377Y-2881223D01*
X3425190Y-2883865D01*
X3425444Y-2886710D01*
X3425190Y-2889656D01*
X3424377Y-2892348D01*
X3423005Y-2894838D01*
X3421126Y-2897124D01*
X3418840Y-2899003D01*
X3416350Y-2900375D01*
X3413658Y-2901188D01*
X3410712Y-2901442D01*
X3410712Y-2921000D01*
X3423869Y-2918510D01*
X3434842Y-2911094D01*
X3442462Y-2899918D01*
X3445001Y-2886710D01*
X3442462Y-2873705D01*
X3434842Y-2862580D01*
X3423869Y-2855163D01*
G37*
G36*
X3498596Y-2852674D02*
G01*
X3498596Y-2881376D01*
X3518154Y-2900934D01*
X3518154Y-2852674D01*
G37*
G36*
X2918714Y-2858770D02*
G01*
X2900426Y-2877058D01*
X2900426Y-2921000D01*
X2919984Y-2921000D01*
X2919984Y-2881884D01*
X2930906Y-2870962D01*
G37*
G36*
X3236214Y-2858770D02*
G01*
X3217926Y-2877058D01*
X3217926Y-2921000D01*
X3237484Y-2921000D01*
X3237484Y-2881884D01*
X3248406Y-2870962D01*
G37*
G36*
X3449828Y-2872740D02*
G01*
X3449828Y-2921000D01*
X3469386Y-2921000D01*
X3469386Y-2892298D01*
G37*
G36*
X3303270Y-2877058D02*
G01*
X3303270Y-2921000D01*
X3322828Y-2921000D01*
X3322828Y-2877058D01*
G37*
G36*
X2871216Y-2901442D02*
G01*
X2871216Y-2921000D01*
X2895600Y-2921000D01*
X2895600Y-2901442D01*
G37*
G36*
X2998216Y-2901442D02*
G01*
X2998216Y-2921000D01*
X3042158Y-2921000D01*
X3042158Y-2901442D01*
G37*
G36*
X2148332Y-3662426D02*
G01*
X2148332Y-3672332D01*
X2167890Y-3672332D01*
X2167890Y-3662426D01*
G37*
G36*
X2133600Y-3677158D02*
G01*
X2133600Y-3696715D01*
X2182368Y-3696715D01*
X2182368Y-3677158D01*
G37*
G36*
X2148332Y-3701542D02*
G01*
X2148332Y-3711448D01*
X2167890Y-3711448D01*
X2167890Y-3701542D01*
G37*
G36*
X2387600Y-3664458D02*
G01*
X2387600Y-3684015D01*
X2436368Y-3684015D01*
X2436368Y-3664458D01*
G37*
G36*
X2868168Y-3896868D02*
G01*
X2855976Y-3909060D01*
X2882900Y-3935984D01*
X2882900Y-3945890D01*
X2859024Y-3945890D01*
X2859024Y-3965448D01*
X2882900Y-3965448D01*
X2882900Y-3975100D01*
X2902458Y-3975100D01*
X2902458Y-3931158D01*
G37*
G36*
X2726690Y-3906774D02*
G01*
X2713482Y-3909263D01*
X2702306Y-3916679D01*
X2694889Y-3927805D01*
X2692400Y-3940810D01*
X2694889Y-3954018D01*
X2702306Y-3965194D01*
X2713482Y-3972610D01*
X2726690Y-3975100D01*
X2726690Y-3955542D01*
X2723743Y-3955287D01*
X2721051Y-3954475D01*
X2718562Y-3953103D01*
X2716276Y-3951224D01*
X2714396Y-3948937D01*
X2713024Y-3946448D01*
X2712212Y-3943756D01*
X2711958Y-3940810D01*
X2712212Y-3937965D01*
X2713024Y-3935323D01*
X2714396Y-3932885D01*
X2716276Y-3930650D01*
X2718562Y-3928770D01*
X2721051Y-3927398D01*
X2723743Y-3926586D01*
X2726690Y-3926332D01*
G37*
G36*
X2731516Y-3906774D02*
G01*
X2731516Y-3926332D01*
X2755900Y-3926332D01*
X2755900Y-3906774D01*
G37*
G36*
X2760726Y-3906774D02*
G01*
X2760726Y-3975100D01*
X2780284Y-3975100D01*
X2780284Y-3906774D01*
G37*
G36*
X2809494Y-3906774D02*
G01*
X2809494Y-3975100D01*
X2829052Y-3975100D01*
X2829052Y-3906774D01*
G37*
G36*
X2907284Y-3906774D02*
G01*
X2907284Y-3975100D01*
X2926842Y-3975100D01*
X2926842Y-3926332D01*
X2936494Y-3926332D01*
X2936494Y-3906774D01*
G37*
G36*
X2941320Y-3906774D02*
G01*
X2941320Y-3926332D01*
X2944266Y-3926586D01*
X2946958Y-3927398D01*
X2949448Y-3928770D01*
X2951734Y-3930650D01*
X2953613Y-3932885D01*
X2954985Y-3935323D01*
X2955798Y-3937965D01*
X2956052Y-3940810D01*
X2955798Y-3943756D01*
X2954985Y-3946448D01*
X2953613Y-3948937D01*
X2951734Y-3951224D01*
X2949448Y-3953103D01*
X2946958Y-3954475D01*
X2944266Y-3955287D01*
X2941320Y-3955542D01*
X2931668Y-3955542D01*
X2931668Y-3975100D01*
X2951226Y-3994658D01*
X2978912Y-3994658D01*
X2956052Y-3971798D01*
X2961030Y-3969004D01*
X2965704Y-3965194D01*
X2973120Y-3954018D01*
X2975610Y-3940810D01*
X2973120Y-3927805D01*
X2965704Y-3916679D01*
X2954528Y-3909263D01*
G37*
G36*
X3014726Y-3906774D02*
G01*
X3001568Y-3909263D01*
X2990596Y-3916679D01*
X2982976Y-3927805D01*
X2980436Y-3940810D01*
X2982976Y-3954018D01*
X2990596Y-3965194D01*
X3001568Y-3972610D01*
X3014726Y-3975100D01*
X3014726Y-3955542D01*
X3011779Y-3955287D01*
X3009087Y-3954475D01*
X3006598Y-3953103D01*
X3004312Y-3951224D01*
X3002432Y-3948937D01*
X3001060Y-3946448D01*
X3000248Y-3943756D01*
X2999994Y-3940810D01*
X3000248Y-3937965D01*
X3001060Y-3935323D01*
X3002432Y-3932885D01*
X3004312Y-3930650D01*
X3006598Y-3928770D01*
X3009087Y-3927398D01*
X3011779Y-3926586D01*
X3014726Y-3926332D01*
G37*
G36*
X3019552Y-3906774D02*
G01*
X3019552Y-3926332D01*
X3043936Y-3926332D01*
X3043936Y-3906774D01*
G37*
G36*
X3048762Y-3906774D02*
G01*
X3048762Y-3975100D01*
X3068320Y-3975100D01*
X3068320Y-3950715D01*
X3107436Y-3950715D01*
X3107436Y-3931158D01*
X3068320Y-3931158D01*
X3068320Y-3906774D01*
G37*
G36*
X3073146Y-3906774D02*
G01*
X3073146Y-3926332D01*
X3117088Y-3926332D01*
X3117088Y-3906774D01*
G37*
G36*
X2852420Y-3912870D02*
G01*
X2833878Y-3931158D01*
X2833878Y-3975100D01*
X2853436Y-3975100D01*
X2853436Y-3935984D01*
X2864612Y-3925062D01*
G37*
G36*
X2785110Y-3931158D02*
G01*
X2785110Y-3950715D01*
X2804668Y-3950715D01*
X2804668Y-3931158D01*
G37*
G36*
X3014726Y-3931158D02*
G01*
X3014726Y-3950715D01*
X3024378Y-3950715D01*
X3024378Y-3955542D01*
X3019552Y-3955542D01*
X3019552Y-3975100D01*
X3043936Y-3975100D01*
X3043936Y-3931158D01*
G37*
G36*
X2731516Y-3955542D02*
G01*
X2731516Y-3975100D01*
X2755900Y-3975100D01*
X2755900Y-3955542D01*
G37*
G36*
X3073146Y-3955542D02*
G01*
X3073146Y-3975100D01*
X3117088Y-3975100D01*
X3117088Y-3955542D01*
G37*
G36*
X3276600Y-3906774D02*
G01*
X3276600Y-3926332D01*
X3344926Y-3926332D01*
X3344926Y-3906774D01*
G37*
G36*
X3349751Y-3906774D02*
G01*
X3349751Y-3975100D01*
X3369310Y-3975100D01*
X3369310Y-3906774D01*
G37*
G36*
X3374136Y-3906774D02*
G01*
X3374136Y-3975100D01*
X3393694Y-3975100D01*
X3393694Y-3926332D01*
X3403600Y-3926332D01*
X3403600Y-3906774D01*
G37*
G36*
X3408426Y-3906774D02*
G01*
X3408426Y-3926332D01*
X3411372Y-3926586D01*
X3414064Y-3927398D01*
X3416554Y-3928770D01*
X3418840Y-3930650D01*
X3420719Y-3932885D01*
X3422091Y-3935323D01*
X3422904Y-3937965D01*
X3423158Y-3940810D01*
X3422904Y-3943756D01*
X3422091Y-3946448D01*
X3420719Y-3948937D01*
X3418840Y-3951224D01*
X3416554Y-3953103D01*
X3414064Y-3954475D01*
X3411372Y-3955287D01*
X3408426Y-3955542D01*
X3398774Y-3955542D01*
X3398774Y-3975100D01*
X3418078Y-3994658D01*
X3445764Y-3994658D01*
X3423158Y-3971798D01*
X3425647Y-3970528D01*
X3430371Y-3967226D01*
X3432556Y-3965194D01*
X3440176Y-3954018D01*
X3442715Y-3940810D01*
X3440176Y-3927805D01*
X3432556Y-3916679D01*
X3421583Y-3909263D01*
G37*
G36*
X3447542Y-3906774D02*
G01*
X3447542Y-3975100D01*
X3467100Y-3975100D01*
X3467100Y-3950715D01*
X3505962Y-3950715D01*
X3505962Y-3931158D01*
X3467100Y-3931158D01*
X3467100Y-3906774D01*
G37*
G36*
X3471926Y-3906774D02*
G01*
X3471926Y-3926332D01*
X3515868Y-3926332D01*
X3515868Y-3906774D01*
G37*
G36*
X3300984Y-3931158D02*
G01*
X3300984Y-3950715D01*
X3335274Y-3950715D01*
X3335274Y-3931158D01*
G37*
G36*
X3276600Y-3931158D02*
G01*
X3276600Y-3975100D01*
X3296158Y-3975100D01*
X3296158Y-3931158D01*
G37*
G36*
X3471926Y-3955542D02*
G01*
X3471926Y-3975100D01*
X3515868Y-3975100D01*
X3515868Y-3955542D01*
G37*
G36*
X3800094Y-3896868D02*
G01*
X3787901Y-3909060D01*
X3814826Y-3935984D01*
X3814826Y-3945890D01*
X3790950Y-3945890D01*
X3790950Y-3965448D01*
X3814826Y-3965448D01*
X3814826Y-3975100D01*
X3834384Y-3975100D01*
X3834384Y-3931158D01*
G37*
G36*
X3619500Y-3906774D02*
G01*
X3619500Y-3975100D01*
X3639058Y-3975100D01*
X3639058Y-3926332D01*
X3648710Y-3926332D01*
X3648710Y-3906774D01*
G37*
G36*
X3653790Y-3906774D02*
G01*
X3653790Y-3926332D01*
X3656634Y-3926586D01*
X3659276Y-3927398D01*
X3661714Y-3928770D01*
X3663950Y-3930650D01*
X3665829Y-3932885D01*
X3667201Y-3935323D01*
X3668014Y-3937965D01*
X3668268Y-3940810D01*
X3668014Y-3943756D01*
X3667201Y-3946448D01*
X3665829Y-3948937D01*
X3663950Y-3951224D01*
X3661714Y-3953103D01*
X3659276Y-3954475D01*
X3656634Y-3955287D01*
X3653790Y-3955542D01*
X3643884Y-3955542D01*
X3643884Y-3975100D01*
X3663442Y-3994658D01*
X3691128Y-3994658D01*
X3668268Y-3971798D01*
X3670858Y-3970528D01*
X3673348Y-3969004D01*
X3675684Y-3967226D01*
X3677920Y-3965194D01*
X3685336Y-3954018D01*
X3687826Y-3940810D01*
X3685336Y-3927805D01*
X3677920Y-3916679D01*
X3666794Y-3909263D01*
G37*
G36*
X3692651Y-3906774D02*
G01*
X3692651Y-3975100D01*
X3712210Y-3975100D01*
X3712210Y-3950715D01*
X3751326Y-3950715D01*
X3751326Y-3931158D01*
X3712210Y-3931158D01*
X3712210Y-3906774D01*
G37*
G36*
X3717036Y-3906774D02*
G01*
X3717036Y-3926332D01*
X3760978Y-3926332D01*
X3760978Y-3906774D01*
G37*
G36*
X3839210Y-3906774D02*
G01*
X3839210Y-3975100D01*
X3858768Y-3975100D01*
X3858768Y-3926332D01*
X3868420Y-3926332D01*
X3868420Y-3906774D01*
G37*
G36*
X3873500Y-3906774D02*
G01*
X3873500Y-3926332D01*
X3876344Y-3926586D01*
X3878986Y-3927398D01*
X3881424Y-3928770D01*
X3883660Y-3930650D01*
X3885539Y-3932885D01*
X3886911Y-3935323D01*
X3887724Y-3937965D01*
X3887978Y-3940810D01*
X3887724Y-3943756D01*
X3886911Y-3946448D01*
X3885539Y-3948937D01*
X3883660Y-3951224D01*
X3881424Y-3953103D01*
X3878986Y-3954475D01*
X3876344Y-3955287D01*
X3873500Y-3955542D01*
X3863594Y-3955542D01*
X3863594Y-3975100D01*
X3873500Y-3975100D01*
X3886504Y-3972610D01*
X3897629Y-3965194D01*
X3905046Y-3954018D01*
X3907536Y-3940810D01*
X3905046Y-3927805D01*
X3897629Y-3916679D01*
X3886504Y-3909263D01*
G37*
G36*
X3784346Y-3912870D02*
G01*
X3766058Y-3931158D01*
X3766058Y-3975100D01*
X3785615Y-3975100D01*
X3785615Y-3935984D01*
X3796537Y-3925062D01*
G37*
G36*
X3717036Y-3955542D02*
G01*
X3717036Y-3975100D01*
X3760978Y-3975100D01*
X3760978Y-3955542D01*
G37*
G36*
X3778250Y-35814D02*
G01*
X3778250Y-60198D01*
X3809492Y-91440D01*
X3846576Y-91440D01*
X3846576Y-71882D01*
X3814318Y-71882D01*
G37*
G36*
X3796537Y-85852D02*
G01*
X3778250Y-104139D01*
X3778250Y-179324D01*
X3797554Y-179324D01*
X3797554Y-120650D01*
X3786124Y-120650D01*
X3808729Y-98044D01*
G37*
G36*
X3802634Y-140208D02*
G01*
X3802634Y-159766D01*
X3846576Y-159766D01*
X3846576Y-140208D01*
G37*
G36*
X3778250Y-184150D02*
G01*
X3778250Y-203708D01*
X3846576Y-203708D01*
X3846576Y-184150D01*
G37*
G36*
X3824478Y-208534D02*
G01*
X3820109Y-208940D01*
X3816045Y-210210D01*
X3812336Y-212242D01*
X3808984Y-215138D01*
X3806190Y-218490D01*
X3804208Y-222199D01*
X3803040Y-226263D01*
X3802634Y-230632D01*
X3802583Y-255524D01*
X3802227Y-256387D01*
X3801465Y-257048D01*
X3800601Y-257302D01*
X3799128Y-257200D01*
X3798315Y-256794D01*
X3797757Y-255981D01*
X3797554Y-255016D01*
X3797554Y-242824D01*
X3778250Y-242824D01*
X3778250Y-255016D01*
X3778656Y-259435D01*
X3779824Y-263448D01*
X3781806Y-267157D01*
X3784600Y-270510D01*
X3787952Y-273304D01*
X3791661Y-275285D01*
X3795725Y-276453D01*
X3800094Y-276860D01*
X3804513Y-276453D01*
X3808526Y-275285D01*
X3812235Y-273304D01*
X3815587Y-270510D01*
X3818483Y-267157D01*
X3820566Y-263448D01*
X3821785Y-259435D01*
X3822192Y-255016D01*
X3822242Y-230174D01*
X3822496Y-229260D01*
X3823106Y-228549D01*
X3823970Y-228142D01*
X3824986Y-228142D01*
X3825849Y-228549D01*
X3826611Y-229260D01*
X3826967Y-230174D01*
X3827018Y-242824D01*
X3846576Y-242824D01*
X3846576Y-230632D01*
X3846169Y-226263D01*
X3844950Y-222199D01*
X3842867Y-218490D01*
X3839972Y-215138D01*
X3836619Y-212242D01*
X3832910Y-210210D01*
X3828897Y-208940D01*
G37*
G36*
X3778250Y-208534D02*
G01*
X3778250Y-237998D01*
X3797554Y-237998D01*
X3797554Y-208534D01*
G37*
G36*
X3827018Y-247650D02*
G01*
X3827018Y-276860D01*
X3846576Y-276860D01*
X3846576Y-247650D01*
G37*
G36*
X3866134Y-278638D02*
G01*
X3843274Y-301244D01*
X3841902Y-298754D01*
X3838448Y-294081D01*
X3836415Y-291846D01*
X3825443Y-284429D01*
X3812286Y-281940D01*
X3799128Y-284429D01*
X3788156Y-291846D01*
X3780739Y-302818D01*
X3778250Y-315976D01*
X3797554Y-315976D01*
X3797808Y-313029D01*
X3798620Y-310337D01*
X3799992Y-307848D01*
X3801872Y-305562D01*
X3804158Y-303682D01*
X3806647Y-302310D01*
X3809339Y-301548D01*
X3812286Y-301244D01*
X3815232Y-301548D01*
X3817924Y-302310D01*
X3820414Y-303682D01*
X3822700Y-305562D01*
X3824579Y-307848D01*
X3825951Y-310337D01*
X3826764Y-313029D01*
X3827018Y-315976D01*
X3827018Y-325882D01*
X3846576Y-325882D01*
X3866134Y-306324D01*
G37*
G36*
X3778250Y-320802D02*
G01*
X3778250Y-350266D01*
X3846576Y-350266D01*
X3846576Y-330708D01*
X3797554Y-330708D01*
X3797554Y-320802D01*
G37*
G36*
X3827018Y-355092D02*
G01*
X3827018Y-399034D01*
X3846576Y-399034D01*
X3846576Y-355092D01*
G37*
G36*
X3778250Y-355092D02*
G01*
X3778250Y-399034D01*
X3797554Y-399034D01*
X3797554Y-355092D01*
G37*
G36*
X3802634Y-364744D02*
G01*
X3802634Y-403860D01*
X3778250Y-403860D01*
X3778250Y-423418D01*
X3846576Y-423418D01*
X3846576Y-403860D01*
X3822192Y-403860D01*
X3822192Y-364744D01*
G37*
G36*
X3949954Y-374650D02*
G01*
X3945585Y-375056D01*
X3941521Y-376224D01*
X3937812Y-378256D01*
X3934460Y-381000D01*
X3931564Y-384454D01*
X3929532Y-388162D01*
X3928262Y-392226D01*
X3927856Y-396494D01*
X3927805Y-421385D01*
X3927348Y-422656D01*
X3926535Y-423214D01*
X3925570Y-423418D01*
X3924604Y-423214D01*
X3923792Y-422656D01*
X3923233Y-421843D01*
X3923029Y-420878D01*
X3923029Y-408686D01*
X3903472Y-408686D01*
X3903472Y-420878D01*
X3903878Y-425297D01*
X3905148Y-429412D01*
X3907180Y-433171D01*
X3910076Y-436626D01*
X3913428Y-439420D01*
X3917137Y-441401D01*
X3921201Y-442569D01*
X3925570Y-442976D01*
X3929989Y-442569D01*
X3934002Y-441401D01*
X3937711Y-439420D01*
X3941064Y-436626D01*
X3943858Y-433171D01*
X3945839Y-429412D01*
X3947007Y-425297D01*
X3947414Y-420878D01*
X3947464Y-396036D01*
X3947871Y-395274D01*
X3949446Y-394258D01*
X3950462Y-394258D01*
X3952087Y-395274D01*
X3952443Y-396036D01*
X3952494Y-408686D01*
X3971798Y-408686D01*
X3971798Y-396494D01*
X3971391Y-392226D01*
X3970223Y-388162D01*
X3968242Y-384454D01*
X3965448Y-381000D01*
X3962095Y-378256D01*
X3958386Y-376224D01*
X3954373Y-375056D01*
G37*
G36*
X3903472Y-374650D02*
G01*
X3903472Y-403860D01*
X3923029Y-403860D01*
X3923029Y-374650D01*
G37*
G36*
X3952494Y-413766D02*
G01*
X3952494Y-442976D01*
X3971798Y-442976D01*
X3971798Y-413766D01*
G37*
G36*
X3778250Y-428243D02*
G01*
X3778250Y-447801D01*
X3817112Y-447801D01*
X3828287Y-458724D01*
X3840479Y-446532D01*
X3822192Y-428243D01*
G37*
G36*
X3903472Y-447801D02*
G01*
X3903472Y-467359D01*
X3971798Y-467359D01*
X3971798Y-447801D01*
G37*
G36*
X3844036Y-450342D02*
G01*
X3817112Y-477266D01*
X3778250Y-477266D01*
X3778250Y-496570D01*
X3822192Y-496570D01*
X3856228Y-462534D01*
G37*
G36*
X3960114Y-472185D02*
G01*
X3891787Y-540512D01*
X3916172Y-540512D01*
X3984498Y-472185D01*
G37*
G36*
X3903472Y-472185D02*
G01*
X3903472Y-491743D01*
X3932428Y-491743D01*
X3951986Y-472185D01*
G37*
G36*
X3778250Y-501650D02*
G01*
X3778250Y-521208D01*
X3846576Y-521208D01*
X3846576Y-501650D01*
G37*
G36*
X3943096Y-521208D02*
G01*
X3923537Y-540512D01*
X3971798Y-540512D01*
X3971798Y-521208D01*
G37*
G36*
X3834892Y-526034D02*
G01*
X3766312Y-594360D01*
X3790950Y-594360D01*
X3859276Y-526034D01*
G37*
G36*
X3778250Y-526034D02*
G01*
X3778250Y-545592D01*
X3806951Y-545592D01*
X3826510Y-526034D01*
G37*
G36*
X3937762Y-545592D02*
G01*
X3924604Y-548081D01*
X3913632Y-555498D01*
X3906012Y-566470D01*
X3903472Y-579628D01*
X3923029Y-579628D01*
X3923284Y-576681D01*
X3924096Y-573989D01*
X3925468Y-571500D01*
X3927348Y-569214D01*
X3929634Y-567436D01*
X3932123Y-566166D01*
X3934815Y-565404D01*
X3937762Y-565150D01*
X3940708Y-565404D01*
X3943400Y-566166D01*
X3945890Y-567436D01*
X3948176Y-569214D01*
X3950055Y-571500D01*
X3951427Y-573989D01*
X3952240Y-576681D01*
X3952494Y-579628D01*
X3971798Y-579628D01*
X3969308Y-566470D01*
X3961892Y-555498D01*
X3950919Y-548081D01*
G37*
G36*
X3652774Y-560070D02*
G01*
X3652774Y-579628D01*
X3721100Y-579628D01*
X3721100Y-560070D01*
G37*
G36*
X3817620Y-574802D02*
G01*
X3798062Y-594360D01*
X3846576Y-594360D01*
X3846576Y-574802D01*
G37*
G36*
X3652774Y-584454D02*
G01*
X3652774Y-594360D01*
X3672332Y-594360D01*
X3672332Y-584454D01*
G37*
G36*
X3903472Y-584454D02*
G01*
X3906012Y-597662D01*
X3913632Y-608838D01*
X3924604Y-616254D01*
X3937762Y-618744D01*
X3950919Y-616254D01*
X3961892Y-608838D01*
X3969308Y-597662D01*
X3971798Y-584454D01*
X3952494Y-584454D01*
X3952240Y-587400D01*
X3951427Y-590092D01*
X3950055Y-592632D01*
X3948176Y-594868D01*
X3945890Y-596747D01*
X3943400Y-598119D01*
X3940708Y-598932D01*
X3937762Y-599186D01*
X3934815Y-598932D01*
X3932123Y-598119D01*
X3929634Y-596747D01*
X3927348Y-594868D01*
X3925468Y-592632D01*
X3924096Y-590092D01*
X3923284Y-587400D01*
X3923029Y-584454D01*
G37*
G36*
X3701542Y-599186D02*
G01*
X3701542Y-618744D01*
X3721100Y-618744D01*
X3721100Y-599186D01*
G37*
G36*
X3812286Y-599186D02*
G01*
X3812286Y-618744D01*
X3815232Y-619048D01*
X3817924Y-619810D01*
X3820414Y-621182D01*
X3822700Y-623062D01*
X3824579Y-625348D01*
X3825951Y-627837D01*
X3826764Y-630529D01*
X3827018Y-633476D01*
X3826764Y-636422D01*
X3825951Y-639064D01*
X3824579Y-641502D01*
X3822700Y-643636D01*
X3820414Y-645515D01*
X3817924Y-646887D01*
X3815232Y-647700D01*
X3812286Y-647954D01*
X3812286Y-667512D01*
X3825443Y-665022D01*
X3836415Y-657606D01*
X3844036Y-646480D01*
X3846576Y-633476D01*
X3844036Y-620318D01*
X3836415Y-609346D01*
X3825443Y-601726D01*
G37*
G36*
X3778250Y-599186D02*
G01*
X3778250Y-618744D01*
X3807460Y-618744D01*
X3807460Y-599186D01*
G37*
G36*
X3652774Y-623570D02*
G01*
X3652774Y-643128D01*
X3691890Y-643128D01*
X3702812Y-654050D01*
X3715004Y-641858D01*
X3696715Y-623570D01*
G37*
G36*
X3901186Y-623570D02*
G01*
X3940048Y-662686D01*
X3901186Y-701802D01*
X3925570Y-701802D01*
X3964686Y-662686D01*
X3925570Y-623570D01*
G37*
G36*
X3932936Y-623570D02*
G01*
X3952494Y-643128D01*
X3971798Y-643128D01*
X3971798Y-623570D01*
G37*
G36*
X3718560Y-645668D02*
G01*
X3691890Y-672338D01*
X3652774Y-672338D01*
X3652774Y-691896D01*
X3696715Y-691896D01*
X3730751Y-657860D01*
G37*
G36*
X3778250Y-647954D02*
G01*
X3778250Y-667512D01*
X3807460Y-667512D01*
X3807460Y-647954D01*
G37*
G36*
X3952494Y-682244D02*
G01*
X3932936Y-701802D01*
X3971798Y-701802D01*
X3971798Y-682244D01*
G37*
G36*
X3827018Y-696976D02*
G01*
X3827018Y-740918D01*
X3846576Y-740918D01*
X3846576Y-696976D01*
G37*
G36*
X3778250Y-696976D02*
G01*
X3778250Y-740918D01*
X3797554Y-740918D01*
X3797554Y-696976D01*
G37*
G36*
X3802634Y-706628D02*
G01*
X3802634Y-745744D01*
X3778250Y-745744D01*
X3778250Y-765302D01*
X3846576Y-765302D01*
X3846576Y-745744D01*
X3822192Y-745744D01*
X3822192Y-706628D01*
G37*
G36*
X3903472Y-706628D02*
G01*
X3903472Y-726186D01*
X3971798Y-726186D01*
X3971798Y-706628D01*
G37*
G36*
X3686810Y-721360D02*
G01*
X3686810Y-740918D01*
X3689756Y-741222D01*
X3692448Y-741984D01*
X3694937Y-743356D01*
X3697224Y-745236D01*
X3699103Y-747420D01*
X3700475Y-749808D01*
X3701287Y-752500D01*
X3701542Y-755396D01*
X3701287Y-758342D01*
X3700475Y-761034D01*
X3699103Y-763574D01*
X3697224Y-765810D01*
X3694937Y-767689D01*
X3692448Y-769061D01*
X3689756Y-769874D01*
X3686810Y-770128D01*
X3686810Y-789686D01*
X3700018Y-787146D01*
X3711194Y-779526D01*
X3718610Y-768553D01*
X3721100Y-755396D01*
X3718610Y-742391D01*
X3711194Y-731266D01*
X3700018Y-723849D01*
G37*
G36*
X3652774Y-721360D02*
G01*
X3652774Y-740918D01*
X3681984Y-740918D01*
X3681984Y-721360D01*
G37*
G36*
X3949954Y-731012D02*
G01*
X3945585Y-731418D01*
X3941521Y-732688D01*
X3937812Y-734720D01*
X3934460Y-737616D01*
X3931564Y-740968D01*
X3929532Y-744677D01*
X3928262Y-748741D01*
X3927856Y-753110D01*
X3927805Y-778002D01*
X3927348Y-779272D01*
X3926535Y-779678D01*
X3925062Y-779780D01*
X3924198Y-779526D01*
X3923487Y-778865D01*
X3923080Y-778002D01*
X3923029Y-765302D01*
X3903472Y-765302D01*
X3903472Y-777494D01*
X3903878Y-781913D01*
X3905148Y-785926D01*
X3907180Y-789635D01*
X3910076Y-792988D01*
X3913428Y-795782D01*
X3917137Y-797763D01*
X3921201Y-798931D01*
X3925570Y-799338D01*
X3929989Y-798931D01*
X3934002Y-797763D01*
X3937711Y-795782D01*
X3941064Y-792988D01*
X3943858Y-789635D01*
X3945839Y-785926D01*
X3947007Y-781913D01*
X3947414Y-777494D01*
X3947464Y-752652D01*
X3947871Y-751738D01*
X3948582Y-751027D01*
X3949446Y-750620D01*
X3950462Y-750620D01*
X3951325Y-751027D01*
X3952087Y-751738D01*
X3952443Y-752652D01*
X3952494Y-765302D01*
X3971798Y-765302D01*
X3971798Y-753110D01*
X3971391Y-748741D01*
X3970223Y-744677D01*
X3968242Y-740968D01*
X3965448Y-737616D01*
X3962095Y-734720D01*
X3958386Y-732688D01*
X3954373Y-731418D01*
G37*
G36*
X3903472Y-731012D02*
G01*
X3903472Y-760476D01*
X3923029Y-760476D01*
X3923029Y-731012D01*
G37*
G36*
X3652774Y-770128D02*
G01*
X3652774Y-789686D01*
X3681984Y-789686D01*
X3681984Y-770128D01*
G37*
G36*
X3778250Y-770128D02*
G01*
X3778250Y-828802D01*
X3797554Y-828802D01*
X3797554Y-770128D01*
G37*
G36*
X3952494Y-770128D02*
G01*
X3952494Y-799338D01*
X3971798Y-799338D01*
X3971798Y-770128D01*
G37*
G36*
X3802634Y-789686D02*
G01*
X3802634Y-809244D01*
X3846576Y-809244D01*
X3846576Y-789686D01*
G37*
G36*
X3701542Y-794512D02*
G01*
X3701542Y-818896D01*
X3721100Y-818896D01*
X3721100Y-794512D01*
G37*
G36*
X3652774Y-794512D02*
G01*
X3652774Y-818896D01*
X3672332Y-818896D01*
X3672332Y-794512D01*
G37*
G36*
X3652774Y-823721D02*
G01*
X3655263Y-836930D01*
X3662679Y-848106D01*
X3673805Y-855522D01*
X3686810Y-858012D01*
X3700018Y-855522D01*
X3711194Y-848106D01*
X3718610Y-836930D01*
X3721100Y-823721D01*
X3701542Y-823721D01*
X3701287Y-826668D01*
X3700475Y-829360D01*
X3699103Y-831900D01*
X3697224Y-834136D01*
X3694937Y-836015D01*
X3692448Y-837387D01*
X3689756Y-838200D01*
X3686810Y-838453D01*
X3683965Y-838200D01*
X3681374Y-837387D01*
X3678885Y-836015D01*
X3676650Y-834136D01*
X3674770Y-831900D01*
X3673398Y-829360D01*
X3672586Y-826668D01*
X3672332Y-823721D01*
G37*
G36*
X3802634Y-826262D02*
G01*
X3768344Y-860552D01*
X3780536Y-872744D01*
X3807460Y-845819D01*
X3817112Y-845819D01*
X3817112Y-869696D01*
X3836670Y-869696D01*
X3836670Y-845819D01*
X3846576Y-845819D01*
X3846576Y-826262D01*
G37*
G36*
X3960114Y-828802D02*
G01*
X3891787Y-897128D01*
X3916172Y-897128D01*
X3984498Y-828802D01*
G37*
G36*
X3903472Y-828802D02*
G01*
X3903472Y-848360D01*
X3932428Y-848360D01*
X3951986Y-828802D01*
G37*
G36*
X3650234Y-862837D02*
G01*
X3689350Y-901953D01*
X3650234Y-941069D01*
X3674618Y-941069D01*
X3713734Y-901953D01*
X3674618Y-862837D01*
G37*
G36*
X3681984Y-862837D02*
G01*
X3701542Y-882396D01*
X3721100Y-882396D01*
X3721100Y-862837D01*
G37*
G36*
X3796537Y-864108D02*
G01*
X3784346Y-876300D01*
X3802634Y-894587D01*
X3846576Y-894587D01*
X3846576Y-875030D01*
X3807460Y-875030D01*
G37*
G36*
X3943096Y-877569D02*
G01*
X3923537Y-897128D01*
X3971798Y-897128D01*
X3971798Y-877569D01*
G37*
G36*
X3778250Y-892302D02*
G01*
X3778250Y-950721D01*
X3797554Y-950721D01*
X3797554Y-892302D01*
G37*
G36*
X3903472Y-901953D02*
G01*
X3903472Y-921512D01*
X3971798Y-921512D01*
X3971798Y-901953D01*
G37*
G36*
X3802634Y-911606D02*
G01*
X3802634Y-931164D01*
X3846576Y-931164D01*
X3846576Y-911606D01*
G37*
G36*
X3701542Y-921512D02*
G01*
X3681984Y-941069D01*
X3721100Y-941069D01*
X3721100Y-921512D01*
G37*
G36*
X3927856Y-926337D02*
G01*
X3927856Y-945896D01*
X3947414Y-945896D01*
X3947414Y-926337D01*
G37*
G36*
X3903472Y-950721D02*
G01*
X3903472Y-970280D01*
X3971798Y-970280D01*
X3971798Y-950721D01*
G37*
G36*
X3824478Y-955548D02*
G01*
X3820109Y-955954D01*
X3816045Y-957224D01*
X3812336Y-959256D01*
X3808984Y-962152D01*
X3806190Y-965504D01*
X3804208Y-969213D01*
X3803040Y-973277D01*
X3802634Y-977646D01*
X3802583Y-1002537D01*
X3802227Y-1003401D01*
X3801465Y-1004163D01*
X3800601Y-1004519D01*
X3799586Y-1004519D01*
X3798722Y-1004163D01*
X3798011Y-1003401D01*
X3797604Y-1002537D01*
X3797554Y-989837D01*
X3778250Y-989837D01*
X3778250Y-1002030D01*
X3778656Y-1006449D01*
X3779824Y-1010462D01*
X3781806Y-1014171D01*
X3784600Y-1017524D01*
X3787952Y-1020419D01*
X3791661Y-1022502D01*
X3795725Y-1023721D01*
X3800094Y-1024128D01*
X3804513Y-1023721D01*
X3808526Y-1022502D01*
X3812235Y-1020419D01*
X3815587Y-1017524D01*
X3818483Y-1014171D01*
X3820566Y-1010462D01*
X3821785Y-1006449D01*
X3822192Y-1002030D01*
X3822242Y-977188D01*
X3822496Y-976274D01*
X3823106Y-975563D01*
X3823970Y-975156D01*
X3824986Y-975156D01*
X3825849Y-975563D01*
X3826611Y-976274D01*
X3826967Y-977188D01*
X3827018Y-989837D01*
X3846576Y-989837D01*
X3846576Y-977646D01*
X3846169Y-973277D01*
X3844950Y-969213D01*
X3842867Y-965504D01*
X3839972Y-962152D01*
X3836619Y-959256D01*
X3832910Y-957224D01*
X3828897Y-955954D01*
G37*
G36*
X3778250Y-955548D02*
G01*
X3778250Y-985012D01*
X3797554Y-985012D01*
X3797554Y-955548D01*
G37*
G36*
X3740658Y-966978D02*
G01*
X3718051Y-989837D01*
X3716680Y-987348D01*
X3713226Y-982675D01*
X3711194Y-980440D01*
X3700018Y-972819D01*
X3686810Y-970280D01*
X3673805Y-972819D01*
X3662679Y-980440D01*
X3655263Y-991412D01*
X3652774Y-1004569D01*
X3672332Y-1004569D01*
X3672586Y-1001623D01*
X3673398Y-998931D01*
X3674770Y-996442D01*
X3676650Y-994156D01*
X3678885Y-992276D01*
X3681374Y-990904D01*
X3683965Y-990142D01*
X3686810Y-989837D01*
X3689756Y-990142D01*
X3692448Y-990904D01*
X3694937Y-992276D01*
X3697224Y-994156D01*
X3699103Y-996442D01*
X3700475Y-998931D01*
X3701287Y-1001623D01*
X3701542Y-1004569D01*
X3701542Y-1014221D01*
X3721100Y-1014221D01*
X3740658Y-994664D01*
G37*
G36*
X3937762Y-975106D02*
G01*
X3924604Y-977646D01*
X3913632Y-985266D01*
X3906012Y-996238D01*
X3903472Y-1009396D01*
X3923029Y-1009396D01*
X3923284Y-1006449D01*
X3924096Y-1003757D01*
X3925468Y-1001268D01*
X3927348Y-998982D01*
X3929634Y-997102D01*
X3932123Y-995730D01*
X3934815Y-994968D01*
X3937762Y-994664D01*
X3940708Y-994968D01*
X3943400Y-995730D01*
X3945890Y-997102D01*
X3948176Y-998982D01*
X3950055Y-1001268D01*
X3951427Y-1003757D01*
X3952240Y-1006449D01*
X3952494Y-1009396D01*
X3971798Y-1009396D01*
X3969308Y-996238D01*
X3961892Y-985266D01*
X3950919Y-977646D01*
G37*
G36*
X3827018Y-994664D02*
G01*
X3827018Y-1024128D01*
X3846576Y-1024128D01*
X3846576Y-994664D01*
G37*
G36*
X3652774Y-1009396D02*
G01*
X3652774Y-1038606D01*
X3721100Y-1038606D01*
X3721100Y-1019048D01*
X3672332Y-1019048D01*
X3672332Y-1009396D01*
G37*
G36*
X3903472Y-1014221D02*
G01*
X3906012Y-1027379D01*
X3913632Y-1038352D01*
X3924604Y-1045971D01*
X3937762Y-1048512D01*
X3950919Y-1045971D01*
X3961892Y-1038352D01*
X3969308Y-1027379D01*
X3971798Y-1014221D01*
X3952494Y-1014221D01*
X3952240Y-1017168D01*
X3951427Y-1019860D01*
X3950055Y-1022400D01*
X3948176Y-1024636D01*
X3945890Y-1026515D01*
X3943400Y-1027887D01*
X3940708Y-1028700D01*
X3937762Y-1028953D01*
X3934815Y-1028700D01*
X3932123Y-1027887D01*
X3929634Y-1026515D01*
X3927348Y-1024636D01*
X3925468Y-1022400D01*
X3924096Y-1019860D01*
X3923284Y-1017168D01*
X3923029Y-1014221D01*
G37*
G36*
X3677158Y-1043432D02*
G01*
X3642868Y-1077722D01*
X3655314Y-1089914D01*
X3681984Y-1062990D01*
X3691890Y-1062990D01*
X3691890Y-1087120D01*
X3711448Y-1087120D01*
X3711448Y-1062990D01*
X3721100Y-1062990D01*
X3721100Y-1043432D01*
G37*
G36*
X3812286Y-1053338D02*
G01*
X3799128Y-1055827D01*
X3788156Y-1063244D01*
X3780739Y-1074369D01*
X3778250Y-1087374D01*
X3797554Y-1087374D01*
X3797808Y-1084580D01*
X3798620Y-1081938D01*
X3799992Y-1079500D01*
X3801872Y-1077214D01*
X3804158Y-1075334D01*
X3806647Y-1073962D01*
X3809339Y-1073200D01*
X3812286Y-1072896D01*
X3815232Y-1073200D01*
X3817924Y-1073962D01*
X3820414Y-1075334D01*
X3822700Y-1077214D01*
X3824579Y-1079500D01*
X3825951Y-1081938D01*
X3826764Y-1084580D01*
X3827018Y-1087374D01*
X3846576Y-1087374D01*
X3844036Y-1074369D01*
X3836415Y-1063244D01*
X3825443Y-1055827D01*
G37*
G36*
X3903472Y-1053338D02*
G01*
X3903472Y-1072896D01*
X3937762Y-1072896D01*
X3940708Y-1073200D01*
X3943400Y-1073962D01*
X3945890Y-1075334D01*
X3948176Y-1077214D01*
X3950055Y-1079500D01*
X3951427Y-1081938D01*
X3952240Y-1084580D01*
X3952494Y-1087374D01*
X3971798Y-1087374D01*
X3969308Y-1074369D01*
X3961892Y-1063244D01*
X3950919Y-1055827D01*
X3937762Y-1053338D01*
G37*
G36*
X3903472Y-1077722D02*
G01*
X3903472Y-1106932D01*
X3923029Y-1106932D01*
X3923029Y-1077722D01*
G37*
G36*
X3671062Y-1081278D02*
G01*
X3658870Y-1093724D01*
X3677158Y-1112012D01*
X3721100Y-1112012D01*
X3721100Y-1092454D01*
X3681984Y-1092454D01*
G37*
G36*
X3778250Y-1092454D02*
G01*
X3780739Y-1105458D01*
X3788156Y-1116584D01*
X3799128Y-1124000D01*
X3812286Y-1126490D01*
X3825443Y-1124000D01*
X3836415Y-1116584D01*
X3844036Y-1105458D01*
X3846576Y-1092454D01*
X3827018Y-1092454D01*
X3826764Y-1095400D01*
X3825951Y-1098042D01*
X3824579Y-1100480D01*
X3822700Y-1102614D01*
X3820414Y-1104493D01*
X3817924Y-1105865D01*
X3815232Y-1106678D01*
X3812286Y-1106932D01*
X3809339Y-1106678D01*
X3806647Y-1105865D01*
X3804158Y-1104493D01*
X3801872Y-1102614D01*
X3799992Y-1100480D01*
X3798620Y-1098042D01*
X3797808Y-1095400D01*
X3797554Y-1092454D01*
G37*
G36*
X3952494Y-1092454D02*
G01*
X3952240Y-1095400D01*
X3951427Y-1098042D01*
X3950055Y-1100480D01*
X3948176Y-1102614D01*
X3945890Y-1104493D01*
X3943400Y-1105865D01*
X3940708Y-1106678D01*
X3937762Y-1106932D01*
X3937762Y-1126490D01*
X3950919Y-1124000D01*
X3961892Y-1116584D01*
X3969308Y-1105458D01*
X3971798Y-1092454D01*
G37*
G36*
X3652774Y-1109472D02*
G01*
X3652774Y-1168146D01*
X3672332Y-1168146D01*
X3672332Y-1109472D01*
G37*
G36*
X3677158Y-1129030D02*
G01*
X3677158Y-1148588D01*
X3721100Y-1148588D01*
X3721100Y-1129030D01*
G37*
G36*
X3778250Y-1131316D02*
G01*
X3778250Y-1150874D01*
X3846576Y-1150874D01*
X3846576Y-1131316D01*
G37*
G36*
X3903472Y-1144016D02*
G01*
X3903472Y-1168654D01*
X3934714Y-1199896D01*
X3971798Y-1199896D01*
X3971798Y-1180338D01*
X3939794Y-1180338D01*
G37*
G36*
X3778250Y-1155954D02*
G01*
X3778250Y-1175512D01*
X3846576Y-1175512D01*
X3846576Y-1155954D01*
G37*
G36*
X3701542Y-1172972D02*
G01*
X3701542Y-1216914D01*
X3721100Y-1216914D01*
X3721100Y-1172972D01*
G37*
G36*
X3652774Y-1172972D02*
G01*
X3652774Y-1216914D01*
X3672332Y-1216914D01*
X3672332Y-1172972D01*
G37*
G36*
X3802634Y-1180338D02*
G01*
X3802634Y-1199896D01*
X3822192Y-1199896D01*
X3822192Y-1180338D01*
G37*
G36*
X3677158Y-1182624D02*
G01*
X3677158Y-1221740D01*
X3652774Y-1221740D01*
X3652774Y-1241298D01*
X3721100Y-1241298D01*
X3721100Y-1221740D01*
X3696715Y-1221740D01*
X3696715Y-1182624D01*
G37*
G36*
X3921760Y-1194308D02*
G01*
X3903472Y-1212596D01*
X3903472Y-1236980D01*
X3933951Y-1206500D01*
G37*
G36*
X3778250Y-1204722D02*
G01*
X3778250Y-1224280D01*
X3846576Y-1224280D01*
X3846576Y-1204722D01*
G37*
G36*
X3812286Y-1229106D02*
G01*
X3799128Y-1231595D01*
X3788156Y-1239012D01*
X3780739Y-1250188D01*
X3778250Y-1263396D01*
X3797554Y-1263396D01*
X3797808Y-1260449D01*
X3798620Y-1257757D01*
X3799992Y-1255268D01*
X3801872Y-1252982D01*
X3804158Y-1251102D01*
X3806647Y-1249730D01*
X3809339Y-1248968D01*
X3812286Y-1248664D01*
X3815232Y-1248968D01*
X3817924Y-1249730D01*
X3820414Y-1251102D01*
X3822700Y-1252982D01*
X3824579Y-1255268D01*
X3825951Y-1257757D01*
X3826764Y-1260449D01*
X3827018Y-1263396D01*
X3846576Y-1263396D01*
X3844036Y-1250188D01*
X3836415Y-1239012D01*
X3825443Y-1231595D01*
G37*
G36*
X3925570Y-1229106D02*
G01*
X3921201Y-1229512D01*
X3917137Y-1230680D01*
X3913428Y-1232712D01*
X3910076Y-1235456D01*
X3907180Y-1238910D01*
X3905148Y-1242618D01*
X3903878Y-1246682D01*
X3903472Y-1250950D01*
X3903472Y-1263396D01*
X3923029Y-1263396D01*
X3923080Y-1250492D01*
X3923487Y-1249730D01*
X3925062Y-1248714D01*
X3926078Y-1248714D01*
X3926941Y-1249121D01*
X3927551Y-1249730D01*
X3927805Y-1250492D01*
X3927856Y-1273048D01*
X3947414Y-1273048D01*
X3947464Y-1250492D01*
X3947871Y-1249730D01*
X3949446Y-1248714D01*
X3950462Y-1248714D01*
X3952087Y-1249730D01*
X3952443Y-1250492D01*
X3952494Y-1263396D01*
X3971798Y-1263396D01*
X3971798Y-1250950D01*
X3971391Y-1246682D01*
X3970223Y-1242618D01*
X3968242Y-1238910D01*
X3965448Y-1235456D01*
X3962095Y-1232712D01*
X3958386Y-1230680D01*
X3954373Y-1229512D01*
X3949954Y-1229106D01*
X3946601Y-1229360D01*
X3943502Y-1230020D01*
X3940505Y-1231138D01*
X3937762Y-1232662D01*
X3935018Y-1231138D01*
X3932072Y-1230020D01*
X3928922Y-1229360D01*
G37*
G36*
X3709415Y-1246124D02*
G01*
X3641090Y-1314450D01*
X3665474Y-1314450D01*
X3733800Y-1246124D01*
G37*
G36*
X3652774Y-1246124D02*
G01*
X3652774Y-1265682D01*
X3681476Y-1265682D01*
X3701034Y-1246124D01*
G37*
G36*
X3778250Y-1268222D02*
G01*
X3780739Y-1281379D01*
X3788156Y-1292352D01*
X3799128Y-1299768D01*
X3812286Y-1302258D01*
X3825443Y-1299768D01*
X3836415Y-1292352D01*
X3844036Y-1281379D01*
X3846576Y-1268222D01*
X3827018Y-1268222D01*
X3826764Y-1271168D01*
X3825951Y-1273860D01*
X3824579Y-1276400D01*
X3822700Y-1278636D01*
X3820414Y-1280414D01*
X3817924Y-1281684D01*
X3815232Y-1282446D01*
X3812286Y-1282700D01*
X3809339Y-1282446D01*
X3806647Y-1281684D01*
X3804158Y-1280414D01*
X3801872Y-1278636D01*
X3799992Y-1276400D01*
X3798620Y-1273860D01*
X3797808Y-1271168D01*
X3797554Y-1268222D01*
G37*
G36*
X3903472Y-1268222D02*
G01*
X3903472Y-1297432D01*
X3971798Y-1297432D01*
X3971798Y-1268222D01*
X3952494Y-1268222D01*
X3952494Y-1277874D01*
X3923029Y-1277874D01*
X3923029Y-1268222D01*
G37*
G36*
X3692398Y-1294892D02*
G01*
X3672840Y-1314450D01*
X3721100Y-1314450D01*
X3721100Y-1294892D01*
G37*
G36*
X3677158Y-1319530D02*
G01*
X3677158Y-1348740D01*
X3696715Y-1348740D01*
X3696715Y-1339088D01*
X3701542Y-1339088D01*
X3701542Y-1343914D01*
X3721100Y-1343914D01*
X3721100Y-1319530D01*
G37*
G36*
X3652774Y-1319530D02*
G01*
X3652774Y-1343914D01*
X3672332Y-1343914D01*
X3672332Y-1319530D01*
G37*
G36*
X3925570Y-1326642D02*
G01*
X3921201Y-1327048D01*
X3917137Y-1328318D01*
X3913428Y-1330350D01*
X3910076Y-1333246D01*
X3907180Y-1336598D01*
X3905148Y-1340307D01*
X3903878Y-1344371D01*
X3903472Y-1348740D01*
X3903472Y-1360932D01*
X3923029Y-1360932D01*
X3923080Y-1348282D01*
X3923487Y-1347368D01*
X3924198Y-1346657D01*
X3925062Y-1346250D01*
X3926078Y-1346250D01*
X3927348Y-1346962D01*
X3927805Y-1348282D01*
X3927856Y-1370584D01*
X3947414Y-1370584D01*
X3947464Y-1348282D01*
X3947871Y-1347368D01*
X3948582Y-1346657D01*
X3949446Y-1346250D01*
X3950462Y-1346250D01*
X3951325Y-1346657D01*
X3952087Y-1347368D01*
X3952443Y-1348282D01*
X3952494Y-1360932D01*
X3971798Y-1360932D01*
X3971798Y-1348740D01*
X3971391Y-1344371D01*
X3970223Y-1340307D01*
X3968242Y-1336598D01*
X3965448Y-1333246D01*
X3962095Y-1330350D01*
X3958386Y-1328318D01*
X3954373Y-1327048D01*
X3949954Y-1326642D01*
X3946601Y-1326896D01*
X3943502Y-1327607D01*
X3940505Y-1328775D01*
X3937762Y-1330452D01*
X3935018Y-1328775D01*
X3932072Y-1327607D01*
X3928922Y-1326896D01*
G37*
G36*
X3827018Y-1331722D02*
G01*
X3827018Y-1375664D01*
X3846576Y-1375664D01*
X3846576Y-1331722D01*
G37*
G36*
X3778250Y-1331722D02*
G01*
X3778250Y-1375664D01*
X3797554Y-1375664D01*
X3797554Y-1331722D01*
G37*
G36*
X3802634Y-1341374D02*
G01*
X3802634Y-1380490D01*
X3778250Y-1380490D01*
X3778250Y-1400048D01*
X3846576Y-1400048D01*
X3846576Y-1380490D01*
X3822192Y-1380490D01*
X3822192Y-1341374D01*
G37*
G36*
X3652774Y-1348740D02*
G01*
X3655263Y-1361897D01*
X3662679Y-1372870D01*
X3673805Y-1380490D01*
X3686810Y-1383030D01*
X3700018Y-1380490D01*
X3711194Y-1372870D01*
X3718610Y-1361897D01*
X3721100Y-1348740D01*
X3701542Y-1348740D01*
X3701287Y-1351686D01*
X3700475Y-1354378D01*
X3699103Y-1356918D01*
X3697224Y-1359154D01*
X3694937Y-1361033D01*
X3692448Y-1362405D01*
X3689756Y-1363218D01*
X3686810Y-1363472D01*
X3683965Y-1363218D01*
X3681374Y-1362405D01*
X3678885Y-1361033D01*
X3676650Y-1359154D01*
X3674770Y-1356918D01*
X3673398Y-1354378D01*
X3672586Y-1351686D01*
X3672332Y-1348740D01*
G37*
G36*
X3903472Y-1365758D02*
G01*
X3903472Y-1395222D01*
X3971798Y-1395222D01*
X3971798Y-1365758D01*
X3952494Y-1365758D01*
X3952494Y-1375664D01*
X3923029Y-1375664D01*
X3923029Y-1365758D01*
G37*
G36*
X3677158Y-1385316D02*
G01*
X3642868Y-1419606D01*
X3655314Y-1431798D01*
X3681984Y-1404874D01*
X3691890Y-1404874D01*
X3691890Y-1428750D01*
X3711448Y-1428750D01*
X3711448Y-1404874D01*
X3721100Y-1404874D01*
X3721100Y-1385316D01*
G37*
G36*
X3952494Y-1400048D02*
G01*
X3952494Y-1424432D01*
X3971798Y-1424432D01*
X3971798Y-1400048D01*
G37*
G36*
X3903472Y-1400048D02*
G01*
X3903472Y-1424432D01*
X3923029Y-1424432D01*
X3923029Y-1400048D01*
G37*
G36*
X3778250Y-1404874D02*
G01*
X3778250Y-1424432D01*
X3846576Y-1424432D01*
X3846576Y-1404874D01*
G37*
G36*
X3671062Y-1423162D02*
G01*
X3658870Y-1435354D01*
X3677158Y-1453642D01*
X3721100Y-1453642D01*
X3721100Y-1434084D01*
X3681984Y-1434084D01*
G37*
G36*
X3802634Y-1429258D02*
G01*
X3802634Y-1448816D01*
X3822192Y-1448816D01*
X3822192Y-1429258D01*
G37*
G36*
X3903472Y-1429258D02*
G01*
X3906012Y-1442415D01*
X3913632Y-1453388D01*
X3924604Y-1461008D01*
X3937762Y-1463548D01*
X3950919Y-1461008D01*
X3961892Y-1453388D01*
X3969308Y-1442415D01*
X3971798Y-1429258D01*
X3952494Y-1429258D01*
X3952240Y-1432204D01*
X3951427Y-1434896D01*
X3950055Y-1437436D01*
X3948176Y-1439672D01*
X3945890Y-1441551D01*
X3943400Y-1442923D01*
X3940708Y-1443736D01*
X3937762Y-1443990D01*
X3934815Y-1443736D01*
X3932123Y-1442923D01*
X3929634Y-1441551D01*
X3927348Y-1439672D01*
X3925468Y-1437436D01*
X3924096Y-1434896D01*
X3923284Y-1432204D01*
X3923029Y-1429258D01*
G37*
G36*
X3778250Y-1453642D02*
G01*
X3778250Y-1473200D01*
X3846576Y-1473200D01*
X3846576Y-1453642D01*
G37*
G36*
X3650234Y-1458468D02*
G01*
X3689350Y-1497584D01*
X3650234Y-1536700D01*
X3674618Y-1536700D01*
X3713734Y-1497584D01*
X3674618Y-1458468D01*
G37*
G36*
X3681984Y-1458468D02*
G01*
X3701542Y-1478026D01*
X3721100Y-1478026D01*
X3721100Y-1458468D01*
G37*
G36*
X3937762Y-1468374D02*
G01*
X3924604Y-1470863D01*
X3913632Y-1478280D01*
X3906012Y-1489405D01*
X3903472Y-1502410D01*
X3923029Y-1502410D01*
X3923284Y-1499616D01*
X3924096Y-1496974D01*
X3925468Y-1494536D01*
X3927348Y-1492250D01*
X3929634Y-1490370D01*
X3932123Y-1488998D01*
X3934815Y-1488236D01*
X3937762Y-1487932D01*
X3940708Y-1488236D01*
X3943400Y-1488998D01*
X3945890Y-1490370D01*
X3948176Y-1492250D01*
X3950055Y-1494536D01*
X3951427Y-1496974D01*
X3952240Y-1499616D01*
X3952494Y-1502410D01*
X3952494Y-1512316D01*
X3971798Y-1512316D01*
X3971798Y-1502410D01*
X3969308Y-1489405D01*
X3961892Y-1478280D01*
X3950919Y-1470863D01*
G37*
G36*
X3778250Y-1478026D02*
G01*
X3778250Y-1536700D01*
X3797554Y-1536700D01*
X3797554Y-1478026D01*
G37*
G36*
X3802634Y-1497584D02*
G01*
X3802634Y-1517142D01*
X3846576Y-1517142D01*
X3846576Y-1497584D01*
G37*
G36*
X3903472Y-1507490D02*
G01*
X3903472Y-1536700D01*
X3991356Y-1536700D01*
X3991356Y-1517142D01*
X3923029Y-1517142D01*
X3923029Y-1507490D01*
G37*
G36*
X3701542Y-1517142D02*
G01*
X3681984Y-1536700D01*
X3721100Y-1536700D01*
X3721100Y-1517142D01*
G37*
G36*
X3922268Y-2157222D02*
G01*
X3865626Y-2214118D01*
X3858158Y-2201722D01*
X3848354Y-2190496D01*
X3839768Y-2182825D01*
X3830624Y-2176526D01*
X3820871Y-2171649D01*
X3810558Y-2168144D01*
X3799636Y-2166061D01*
X3788156Y-2165350D01*
X3776624Y-2166061D01*
X3765651Y-2168144D01*
X3755288Y-2171649D01*
X3745484Y-2176526D01*
X3736289Y-2182825D01*
X3727704Y-2190496D01*
X3720033Y-2199081D01*
X3713734Y-2208276D01*
X3708857Y-2218080D01*
X3705351Y-2228443D01*
X3703269Y-2239416D01*
X3702558Y-2250948D01*
X3751326Y-2250948D01*
X3754069Y-2236876D01*
X3762248Y-2225040D01*
X3774084Y-2216861D01*
X3788156Y-2214118D01*
X3802075Y-2216861D01*
X3813810Y-2225040D01*
X3821988Y-2236876D01*
X3824732Y-2250948D01*
X3824732Y-2275332D01*
X3873500Y-2275332D01*
X3922268Y-2226310D01*
G37*
G36*
X3702558Y-2263140D02*
G01*
X3702558Y-2336292D01*
X3873500Y-2336292D01*
X3873500Y-2287524D01*
X3751326Y-2287524D01*
X3751326Y-2263140D01*
G37*
G36*
X3763518Y-2348484D02*
G01*
X3678174Y-2433828D01*
X3708654Y-2464562D01*
X3775710Y-2397252D01*
X3800348Y-2397252D01*
X3800348Y-2457196D01*
X3849115Y-2457196D01*
X3849115Y-2397252D01*
X3873500Y-2397252D01*
X3873500Y-2348484D01*
G37*
G36*
X3748278Y-2442972D02*
G01*
X3717798Y-2473706D01*
X3763518Y-2519426D01*
X3873500Y-2519426D01*
X3873500Y-2470658D01*
X3775710Y-2470658D01*
G37*
G36*
X3702558Y-2513330D02*
G01*
X3702558Y-2659888D01*
X3751326Y-2659888D01*
X3751326Y-2513330D01*
G37*
G36*
X3763518Y-2562098D02*
G01*
X3763518Y-2610866D01*
X3873500Y-2610866D01*
X3873500Y-2562098D01*
G37*
G36*
X3824732Y-2672080D02*
G01*
X3824732Y-2781808D01*
X3873500Y-2781808D01*
X3873500Y-2672080D01*
G37*
G36*
X3702558Y-2672080D02*
G01*
X3702558Y-2781808D01*
X3751326Y-2781808D01*
X3751326Y-2672080D01*
G37*
G36*
X3763518Y-2696464D02*
G01*
X3763518Y-2794000D01*
X3702558Y-2794000D01*
X3702558Y-2842768D01*
X3873500Y-2842768D01*
X3873500Y-2794000D01*
X3812540Y-2794000D01*
X3812540Y-2696464D01*
G37*
G36*
X3844290Y-2854960D02*
G01*
X3673348Y-3025902D01*
X3734308Y-3025902D01*
X3905250Y-2854960D01*
G37*
G36*
X3702558Y-2854960D02*
G01*
X3702558Y-2903982D01*
X3774694Y-2903982D01*
X3823462Y-2854960D01*
G37*
G36*
X3801364Y-2977134D02*
G01*
X3752596Y-3025902D01*
X3873500Y-3025902D01*
X3873500Y-2977134D01*
G37*
G36*
X3763518Y-3038094D02*
G01*
X3763518Y-3111500D01*
X3812540Y-3111500D01*
X3812540Y-3087116D01*
X3824732Y-3087116D01*
X3824732Y-3099308D01*
X3873500Y-3099308D01*
X3873500Y-3038094D01*
G37*
G36*
X3702558Y-3038094D02*
G01*
X3702558Y-3099308D01*
X3751326Y-3099308D01*
X3751326Y-3038094D01*
G37*
G36*
X3702558Y-3111500D02*
G01*
X3703269Y-3122980D01*
X3705351Y-3133902D01*
X3708857Y-3144266D01*
X3713734Y-3154070D01*
X3720033Y-3163316D01*
X3727704Y-3171952D01*
X3736289Y-3179572D01*
X3745484Y-3185769D01*
X3755288Y-3190646D01*
X3765651Y-3194100D01*
X3776624Y-3196183D01*
X3788156Y-3196844D01*
X3799636Y-3196183D01*
X3810558Y-3194100D01*
X3820871Y-3190646D01*
X3830624Y-3185769D01*
X3839768Y-3179572D01*
X3848354Y-3171952D01*
X3856024Y-3163316D01*
X3862324Y-3154070D01*
X3867200Y-3144266D01*
X3870706Y-3133902D01*
X3872788Y-3122980D01*
X3873500Y-3111500D01*
X3824732Y-3111500D01*
X3821988Y-3125470D01*
X3813810Y-3137408D01*
X3802075Y-3145434D01*
X3788156Y-3148076D01*
X3774084Y-3145434D01*
X3762248Y-3137408D01*
X3754069Y-3125470D01*
X3751326Y-3111500D01*
G37*
G36*
X3763518Y-3202940D02*
G01*
X3678174Y-3288537D01*
X3708654Y-3319018D01*
X3775710Y-3251708D01*
X3800348Y-3251708D01*
X3800348Y-3311651D01*
X3849115Y-3311651D01*
X3849115Y-3251708D01*
X3873500Y-3251708D01*
X3873500Y-3202940D01*
G37*
G36*
X3748278Y-3297682D02*
G01*
X3717798Y-3328162D01*
X3763518Y-3373882D01*
X3873500Y-3373882D01*
X3873500Y-3325114D01*
X3775710Y-3325114D01*
G37*
G36*
X3696462Y-3386074D02*
G01*
X3794251Y-3483864D01*
X3696462Y-3581400D01*
X3757422Y-3581400D01*
X3855212Y-3483864D01*
X3757422Y-3386074D01*
G37*
G36*
X3775710Y-3386074D02*
G01*
X3824732Y-3434842D01*
X3873500Y-3434842D01*
X3873500Y-3386074D01*
G37*
G36*
X3824732Y-3532632D02*
G01*
X3775710Y-3581400D01*
X3873500Y-3581400D01*
X3873500Y-3532632D01*
G37*
G36*
X800100Y-3861562D02*
G01*
X800100Y-3920998D01*
X839724Y-3920998D01*
X839724Y-3861562D01*
G37*
G36*
X899414Y-3861562D02*
G01*
X899414Y-3920998D01*
X939037Y-3920998D01*
X939037Y-3861562D01*
G37*
G36*
X993648Y-3861562D02*
G01*
X976426Y-3864864D01*
X961898Y-3874770D01*
X952195Y-3889095D01*
X948944Y-3906265D01*
X952195Y-3923436D01*
X961898Y-3937762D01*
X976426Y-3947668D01*
X993648Y-3950970D01*
X1044143Y-3951071D01*
X1045921Y-3951681D01*
X1046734Y-3952240D01*
X1047902Y-3953865D01*
X1048258Y-3955796D01*
X1047902Y-3957726D01*
X1046734Y-3959351D01*
X1045108Y-3960520D01*
X1043178Y-3960876D01*
X1018286Y-3960876D01*
X1018286Y-4000500D01*
X1043178Y-4000500D01*
X1060348Y-3997198D01*
X1074674Y-3987292D01*
X1084580Y-3972915D01*
X1087882Y-3955796D01*
X1084580Y-3938778D01*
X1074674Y-3924300D01*
X1060348Y-3914394D01*
X1043178Y-3911092D01*
X992682Y-3910990D01*
X990904Y-3910380D01*
X990092Y-3909822D01*
X988974Y-3908145D01*
X988568Y-3906265D01*
X988974Y-3904386D01*
X990092Y-3902710D01*
X991768Y-3901592D01*
X993648Y-3901186D01*
X1018286Y-3901186D01*
X1018286Y-3861562D01*
G37*
G36*
X1028192Y-3861562D02*
G01*
X1028192Y-3901186D01*
X1087882Y-3901186D01*
X1087882Y-3861562D01*
G37*
G36*
X1097788Y-3861562D02*
G01*
X1097788Y-4000500D01*
X1157224Y-4000500D01*
X1157224Y-3960876D01*
X1137412Y-3960876D01*
X1137412Y-3901186D01*
X1157224Y-3901186D01*
X1157224Y-3861562D01*
G37*
G36*
X1167130Y-3861562D02*
G01*
X1167130Y-3901186D01*
X1192987Y-3901287D01*
X1194765Y-3902049D01*
X1195578Y-3902710D01*
X1196543Y-3904335D01*
X1196848Y-3906265D01*
X1196543Y-3908145D01*
X1195578Y-3909822D01*
X1193952Y-3910787D01*
X1192022Y-3911092D01*
X1147318Y-3911092D01*
X1147318Y-3950970D01*
X1192987Y-3951071D01*
X1194765Y-3951681D01*
X1195578Y-3952240D01*
X1196543Y-3953865D01*
X1196848Y-3955796D01*
X1196543Y-3957726D01*
X1195578Y-3959351D01*
X1193952Y-3960520D01*
X1192022Y-3960876D01*
X1167130Y-3960876D01*
X1167130Y-4000500D01*
X1192022Y-4000500D01*
X1209192Y-3997198D01*
X1223518Y-3987292D01*
X1233424Y-3972915D01*
X1236726Y-3955796D01*
X1234846Y-3942791D01*
X1229106Y-3931158D01*
X1234846Y-3919474D01*
X1236726Y-3906265D01*
X1233424Y-3889095D01*
X1223518Y-3874770D01*
X1209192Y-3864864D01*
X1192022Y-3861562D01*
G37*
G36*
X800100Y-3931158D02*
G01*
X801370Y-3944975D01*
X805180Y-3957777D01*
X811530Y-3969512D01*
X820419Y-3980179D01*
X831087Y-3989070D01*
X842822Y-3995420D01*
X855624Y-3999229D01*
X869442Y-4000500D01*
X883361Y-3999229D01*
X896264Y-3995420D01*
X907999Y-3989070D01*
X918718Y-3980179D01*
X927608Y-3969512D01*
X933958Y-3957777D01*
X937768Y-3944975D01*
X939037Y-3931158D01*
X899414Y-3931158D01*
X898855Y-3937050D01*
X897178Y-3942486D01*
X894435Y-3947464D01*
X890524Y-3951986D01*
X885952Y-3955897D01*
X880922Y-3958640D01*
X875436Y-3960317D01*
X869442Y-3960876D01*
X863549Y-3960317D01*
X858164Y-3958640D01*
X853135Y-3955897D01*
X848614Y-3951986D01*
X844753Y-3947464D01*
X841959Y-3942486D01*
X840282Y-3937050D01*
X839724Y-3931158D01*
G37*
G36*
X948944Y-3960876D02*
G01*
X948944Y-4000500D01*
X1008380Y-4000500D01*
X1008380Y-3960876D01*
G37*
G36*
X2095500Y-3932174D02*
G01*
X2095500Y-4020058D01*
X2115058Y-4020058D01*
X2115058Y-3951732D01*
X2124710Y-3951732D01*
X2124710Y-3932174D01*
G37*
G36*
X2129790Y-3932174D02*
G01*
X2129790Y-3951732D01*
X2132634Y-3951986D01*
X2135276Y-3952798D01*
X2137714Y-3954170D01*
X2139950Y-3956050D01*
X2141829Y-3958285D01*
X2143201Y-3960723D01*
X2144014Y-3963365D01*
X2144268Y-3966210D01*
X2144014Y-3969156D01*
X2143201Y-3971848D01*
X2141829Y-3974337D01*
X2139950Y-3976624D01*
X2137714Y-3978503D01*
X2135276Y-3979875D01*
X2132634Y-3980687D01*
X2129790Y-3980942D01*
X2119884Y-3980942D01*
X2119884Y-4000500D01*
X2129790Y-4000500D01*
X2142794Y-3998010D01*
X2153920Y-3990594D01*
X2161336Y-3979418D01*
X2163826Y-3966210D01*
X2161336Y-3953205D01*
X2153920Y-3942079D01*
X2142794Y-3934663D01*
G37*
G36*
X2202942Y-3932174D02*
G01*
X2189784Y-3934663D01*
X2178812Y-3942079D01*
X2171192Y-3953205D01*
X2168652Y-3966210D01*
X2171192Y-3979418D01*
X2178812Y-3990594D01*
X2189784Y-3998010D01*
X2202942Y-4000500D01*
X2202942Y-3980942D01*
X2199995Y-3980687D01*
X2197303Y-3979875D01*
X2194814Y-3978503D01*
X2192528Y-3976624D01*
X2190648Y-3974337D01*
X2189276Y-3971848D01*
X2188464Y-3969156D01*
X2188210Y-3966210D01*
X2188464Y-3963365D01*
X2189276Y-3960723D01*
X2190648Y-3958285D01*
X2192528Y-3956050D01*
X2194814Y-3954170D01*
X2197303Y-3952798D01*
X2199995Y-3951986D01*
X2202942Y-3951732D01*
G37*
G36*
X2207768Y-3932174D02*
G01*
X2207768Y-3951732D01*
X2210714Y-3951986D01*
X2213406Y-3952798D01*
X2215896Y-3954170D01*
X2218182Y-3956050D01*
X2220061Y-3958285D01*
X2221433Y-3960723D01*
X2222246Y-3963365D01*
X2222500Y-3966210D01*
X2222246Y-3969156D01*
X2221433Y-3971848D01*
X2220061Y-3974337D01*
X2218182Y-3976624D01*
X2215896Y-3978503D01*
X2213406Y-3979875D01*
X2210714Y-3980687D01*
X2207768Y-3980942D01*
X2207768Y-4000500D01*
X2220925Y-3998010D01*
X2231898Y-3990594D01*
X2239518Y-3979418D01*
X2242058Y-3966210D01*
X2239518Y-3953205D01*
X2231898Y-3942079D01*
X2220925Y-3934663D01*
G37*
G36*
X2305558Y-3932174D02*
G01*
X2305558Y-3960368D01*
X2324862Y-3979926D01*
X2324862Y-3932174D01*
G37*
G36*
X2246884Y-3932174D02*
G01*
X2246884Y-3979926D01*
X2266442Y-3960368D01*
X2266442Y-3932174D01*
G37*
G36*
X2329942Y-3932174D02*
G01*
X2329942Y-4000500D01*
X2349500Y-4000500D01*
X2349500Y-3976115D01*
X2388362Y-3976115D01*
X2388362Y-3956558D01*
X2349500Y-3956558D01*
X2349500Y-3932174D01*
G37*
G36*
X2354326Y-3932174D02*
G01*
X2354326Y-3951732D01*
X2398268Y-3951732D01*
X2398268Y-3932174D01*
G37*
G36*
X2403094Y-3932174D02*
G01*
X2403094Y-4000500D01*
X2422652Y-4000500D01*
X2422652Y-3951732D01*
X2432304Y-3951732D01*
X2432304Y-3932174D01*
G37*
G36*
X2437384Y-3932174D02*
G01*
X2437384Y-3951732D01*
X2440228Y-3951986D01*
X2442819Y-3952798D01*
X2445308Y-3954170D01*
X2447544Y-3956050D01*
X2449423Y-3958285D01*
X2450795Y-3960723D01*
X2451608Y-3963365D01*
X2451862Y-3966210D01*
X2451608Y-3969156D01*
X2450795Y-3971848D01*
X2449423Y-3974337D01*
X2447544Y-3976624D01*
X2445308Y-3978503D01*
X2442870Y-3979875D01*
X2440228Y-3980687D01*
X2437384Y-3980942D01*
X2427478Y-3980942D01*
X2427478Y-4000500D01*
X2447036Y-4020058D01*
X2474722Y-4020058D01*
X2451862Y-3997198D01*
X2454452Y-3995928D01*
X2456942Y-3994404D01*
X2459278Y-3992626D01*
X2461514Y-3990594D01*
X2468930Y-3979418D01*
X2471420Y-3966210D01*
X2468930Y-3953205D01*
X2461514Y-3942079D01*
X2450388Y-3934663D01*
G37*
G36*
X2286000Y-3948176D02*
G01*
X2246884Y-3987292D01*
X2246884Y-4011676D01*
X2286000Y-3972560D01*
X2324862Y-4011676D01*
X2324862Y-3987292D01*
G37*
G36*
X2354326Y-3980942D02*
G01*
X2354326Y-4000500D01*
X2398268Y-4000500D01*
X2398268Y-3980942D01*
G37*
G36*
X2916986Y-1620774D02*
G01*
X2903982Y-1623263D01*
X2892907Y-1630680D01*
X2885440Y-1641805D01*
X2882950Y-1654810D01*
X2885440Y-1668018D01*
X2892907Y-1679193D01*
X2903982Y-1686610D01*
X2916986Y-1689100D01*
X2916986Y-1669542D01*
X2914091Y-1669288D01*
X2911449Y-1668475D01*
X2909011Y-1667103D01*
X2906877Y-1665224D01*
X2904947Y-1662938D01*
X2903626Y-1660448D01*
X2902813Y-1657756D01*
X2902559Y-1654810D01*
X2902813Y-1651965D01*
X2903626Y-1649374D01*
X2904947Y-1646885D01*
X2906877Y-1644650D01*
X2909011Y-1642770D01*
X2911398Y-1641398D01*
X2914091Y-1640586D01*
X2916986Y-1640332D01*
G37*
G36*
X2921863Y-1620774D02*
G01*
X2921863Y-1640332D01*
X2946450Y-1640332D01*
X2946450Y-1620774D01*
G37*
G36*
X2921863Y-1669542D02*
G01*
X2921863Y-1689100D01*
X2946450Y-1689100D01*
X2946450Y-1669542D01*
G37*
G36*
X3390950Y-1620723D02*
G01*
X3390950Y-1689049D01*
X3410508Y-1689049D01*
X3410508Y-1664665D01*
X3449370Y-1664665D01*
X3449370Y-1645107D01*
X3410508Y-1645107D01*
X3410508Y-1620723D01*
G37*
G36*
X3415334Y-1620723D02*
G01*
X3415334Y-1640281D01*
X3459276Y-1640281D01*
X3459276Y-1620723D01*
G37*
G36*
X3415334Y-1669491D02*
G01*
X3415334Y-1689049D01*
X3459276Y-1689049D01*
X3459276Y-1669491D01*
G37*
G36*
X2916986Y-1112774D02*
G01*
X2903982Y-1115263D01*
X2892907Y-1122680D01*
X2885440Y-1133805D01*
X2882950Y-1146810D01*
X2885440Y-1160018D01*
X2892907Y-1171194D01*
X2903982Y-1178610D01*
X2916986Y-1181100D01*
X2916986Y-1161542D01*
X2914091Y-1161288D01*
X2911449Y-1160475D01*
X2909011Y-1159103D01*
X2906877Y-1157224D01*
X2904947Y-1154938D01*
X2903626Y-1152448D01*
X2902813Y-1149756D01*
X2902559Y-1146810D01*
X2902813Y-1143965D01*
X2903626Y-1141374D01*
X2904947Y-1138885D01*
X2906877Y-1136650D01*
X2909011Y-1134770D01*
X2911398Y-1133398D01*
X2914091Y-1132586D01*
X2916986Y-1132332D01*
G37*
G36*
X2921863Y-1112774D02*
G01*
X2921863Y-1132332D01*
X2946450Y-1132332D01*
X2946450Y-1112774D01*
G37*
G36*
X2921863Y-1161542D02*
G01*
X2921863Y-1181100D01*
X2946450Y-1181100D01*
X2946450Y-1161542D01*
G37*
G36*
X3390950Y-1112723D02*
G01*
X3390950Y-1181049D01*
X3410508Y-1181049D01*
X3410508Y-1156665D01*
X3449370Y-1156665D01*
X3449370Y-1137107D01*
X3410508Y-1137107D01*
X3410508Y-1112723D01*
G37*
G36*
X3415334Y-1112723D02*
G01*
X3415334Y-1132281D01*
X3459276Y-1132281D01*
X3459276Y-1112723D01*
G37*
G36*
X3415334Y-1161491D02*
G01*
X3415334Y-1181049D01*
X3459276Y-1181049D01*
X3459276Y-1161491D01*
G37*
D10*
X3048005Y-3047994D02*
G01*
X3175005Y-2971794D01*
X3048005Y-2539994D02*
G01*
X3175005Y-2463794D01*
X3301992Y-3047994D02*
G01*
X3175005Y-3047994D01*
X3301992Y-2539994D02*
G01*
X3175005Y-2539994D01*
X2381404Y-3048800D02*
G01*
X2317805Y-3048800D01*
X2438405Y-3009900D02*
G01*
X2438405Y-3086100D01*
X2438405Y-3048000D02*
G01*
X2530591Y-3048000D01*
X2438405Y-3048000D02*
G01*
X2387605Y-2997200D01*
X2387605Y-3048000D01*
X2387605Y-3098800D01*
X2438405Y-3048000D01*
X2381404Y-2540800D02*
G01*
X2317805Y-2540800D01*
X2438405Y-2501900D02*
G01*
X2438405Y-2578100D01*
X2438405Y-2540000D02*
G01*
X2530591Y-2540000D01*
X2438405Y-2540000D02*
G01*
X2387605Y-2489200D01*
X2387605Y-2540000D01*
X2387605Y-2590800D01*
X2438405Y-2540000D01*
D11*
X2159005Y-507994D02*
G01*
X3428992Y-507994D01*
D10*
X2381404Y-1651800D02*
G01*
X2317805Y-1651800D01*
X2438405Y-1612900D02*
G01*
X2438405Y-1689100D01*
X2438405Y-1651000D02*
G01*
X2530591Y-1651000D01*
X2438405Y-1651000D02*
G01*
X2387605Y-1600200D01*
X2387605Y-1651000D01*
X2387605Y-1701800D01*
X2438405Y-1651000D01*
X2381404Y-1143800D02*
G01*
X2317805Y-1143800D01*
X2438405Y-1104900D02*
G01*
X2438405Y-1181100D01*
X2438405Y-1143000D02*
G01*
X2530591Y-1143000D01*
X2438405Y-1143000D02*
G01*
X2387605Y-1092200D01*
X2387605Y-1143000D01*
X2387605Y-1193800D01*
X2438405Y-1143000D01*
D11*
X101602Y-330197D02*
G01*
X101602Y-4190997D01*
X1930402Y-4190997D01*
X1930402Y-126997D01*
X101602Y-126997D01*
X101602Y-355597D01*
G75*
G01*
X1270003Y-126997D02*
G02*
X762003Y-126997I-254000J0D01*
G75*
G01
X3130022Y-1740992D02*
G03X3130022Y-1740992I-15011J0D01*
D12*
G75*
G01
X3325017Y-1651000D02*
G03X3325017Y-1651000I-150012J0D01*
D11*
G75*
G01
X3130022Y-1232992D02*
G03X3130022Y-1232992I-15011J0D01*
D12*
G75*
G01
X3325017Y-1143000D02*
G03X3325017Y-1143000I-150012J0D01*
D11*
X2032005Y-889000D02*
G01*
X3556005Y-889000D01*
X3556005Y-2159000D01*
X2032005Y-2159000D01*
X2032005Y-889000D01*
X2032005Y-127000D02*
G01*
X3556005Y-127000D01*
X3556005Y-762000D01*
X2032005Y-762000D01*
X2032005Y-127000D01*
X2032005Y-2286000D02*
G01*
X3556005Y-2286000D01*
X3556005Y-3556000D01*
X2032005Y-3556000D01*
X2032005Y-2286000D01*
X2032005Y-3619500D02*
G01*
X2539994Y-3619500D01*
X2539994Y-4063992D01*
X2032005Y-4063992D01*
X2032005Y-3619500D01*
X2667005Y-3683000D02*
G01*
X3937005Y-3683000D01*
X3937005Y-4191000D01*
X2667005Y-4191000D01*
X2667005Y-3683000D01*
X635005Y-3682992D02*
G01*
X1397002Y-3682992D01*
X1397002Y-4190992D01*
X635005Y-4190992D01*
X635005Y-3682992D01*
M02*
